Preview_AmstelvarRoman-Short-weight_900.00_width_125.00_size_8.00.ufo
<glyph name="numbersign" format="2">
  <advance width="1548"/>
  <unicode hex="0023"/>
  <outline>
    <contour>
      <point x="75.0" y="293.0" type="line"/>
      <point x="75.0" y="560.0" type="line"/>
      <point x="1322.0" y="560.0" type="line"/>
      <point x="1322.0" y="293.0" type="line"/>
    </contour>
    <contour>
      <point x="190.0" y="934.0" type="line"/>
      <point x="190.0" y="1201.0" type="line"/>
      <point x="1473.0" y="1201.0" type="line"/>
      <point x="1473.0" y="934.0" type="line"/>
    </contour>
    <contour>
      <point x="165.0" y="22.0" type="line"/>
      <point x="624.0" y="1459.0" type="line"/>
      <point x="773.0" y="1439.0" type="line"/>
      <point x="313.0" y="2.0" type="line"/>
    </contour>
    <contour>
      <point x="750.0" y="22.0" type="line"/>
      <point x="1211.0" y="1459.0" type="line"/>
      <point x="1358.0" y="1439.0" type="line"/>
      <point x="897.0" y="2.0" type="line"/>
    </contour>
  </outline>
</glyph>
<glyph name="ampersand" format="2">
  <advance width="2230"/>
  <unicode hex="0026"/>
  <outline>
    <contour>
      <point x="715.0" y="-27.0" type="qcurve" smooth="yes"/>
      <point x="400.0" y="-27.0"/>
      <point x="60.0" y="182.0"/>
      <point x="69.0" y="389.0" type="qcurve" smooth="yes"/>
      <point x="78.0" y="572.0"/>
      <point x="389.0" y="788.0"/>
      <point x="722.0" y="860.0" type="qcurve"/>
      <point x="916.0" y="918.0"/>
      <point x="1056.0" y="1067.0"/>
      <point x="1056.0" y="1176.0" type="qcurve" smooth="yes"/>
      <point x="1056.0" y="1244.0"/>
      <point x="936.0" y="1351.0"/>
      <point x="841.0" y="1351.0" type="qcurve" smooth="yes"/>
      <point x="736.0" y="1351.0"/>
      <point x="597.0" y="1266.0"/>
      <point x="595.0" y="1191.0" type="qcurve" smooth="yes"/>
      <point x="593.0" y="1100.0"/>
      <point x="728.0" y="957.0"/>
      <point x="911.0" y="898.0" type="qcurve"/>
      <point x="1546.0" y="288.0" type="line" smooth="yes"/>
      <point x="1619.0" y="217.0"/>
      <point x="1764.0" y="204.0"/>
      <point x="1835.0" y="204.0" type="qcurve" smooth="yes"/>
      <point x="1905.0" y="204.0"/>
      <point x="1993.0" y="241.0"/>
      <point x="2039.0" y="290.0" type="qcurve"/>
      <point x="2159.0" y="146.0" type="line"/>
      <point x="2100.0" y="88.0"/>
      <point x="1867.0" y="-23.0"/>
      <point x="1676.0" y="-34.0" type="qcurve" smooth="yes"/>
      <point x="1535.0" y="-45.0"/>
      <point x="1285.0" y="43.0"/>
      <point x="1211.0" y="105.0" type="qcurve" smooth="yes"/>
      <point x="533.0" y="772.0" type="line"/>
      <point x="379.0" y="845.0"/>
      <point x="265.0" y="1046.0"/>
      <point x="265.0" y="1165.0" type="qcurve" smooth="yes"/>
      <point x="265.0" y="1325.0"/>
      <point x="623.0" y="1534.0"/>
      <point x="877.0" y="1533.0" type="qcurve" smooth="yes"/>
      <point x="1135.0" y="1533.0"/>
      <point x="1359.0" y="1331.0"/>
      <point x="1351.0" y="1195.0" type="qcurve" smooth="yes"/>
      <point x="1343.0" y="1014.0"/>
      <point x="1061.0" y="799.0"/>
      <point x="857.0" y="738.0" type="qcurve"/>
      <point x="688.0" y="686.0"/>
      <point x="520.0" y="549.0"/>
      <point x="523.0" y="419.0" type="qcurve" smooth="yes"/>
      <point x="528.0" y="309.0"/>
      <point x="651.0" y="170.0"/>
      <point x="836.0" y="169.0" type="qcurve" smooth="yes"/>
      <point x="1134.0" y="167.0"/>
      <point x="1676.0" y="564.0"/>
      <point x="1850.0" y="803.0" type="qcurve"/>
      <point x="2108.0" y="780.0" type="line"/>
      <point x="1897.0" y="496.0"/>
      <point x="1169.0" y="-27.0"/>
    </contour>
    <contour>
      <point x="1384.0" y="831.0" type="line"/>
      <point x="1425.0" y="912.0"/>
      <point x="1569.0" y="993.0"/>
      <point x="1637.0" y="993.0" type="qcurve" smooth="yes"/>
      <point x="1702.0" y="993.0"/>
      <point x="1831.0" y="938.0"/>
      <point x="1901.0" y="938.0" type="qcurve" smooth="yes"/>
      <point x="1945.0" y="938.0"/>
      <point x="2027.0" y="966.0"/>
      <point x="2064.0" y="1015.0" type="qcurve"/>
      <point x="2197.0" y="879.0" type="line"/>
      <point x="2117.0" y="810.0"/>
      <point x="1997.0" y="714.0"/>
      <point x="1930.0" y="714.0" type="qcurve" smooth="yes"/>
      <point x="1879.0" y="714.0"/>
      <point x="1696.0" y="792.0"/>
      <point x="1639.0" y="792.0" type="qcurve" smooth="yes"/>
      <point x="1581.0" y="792.0"/>
      <point x="1497.0" y="760.0"/>
      <point x="1463.0" y="738.0" type="qcurve"/>
    </contour>
  </outline>
</glyph>
<glyph name="period" format="2">
  <advance width="703"/>
  <unicode hex="002E"/>
  <outline>
    <contour>
      <point x="88.0" y="227.0" type="qcurve" smooth="yes"/>
      <point x="88.0" y="328.0"/>
      <point x="237.0" y="477.0"/>
      <point x="351.0" y="477.0" type="qcurve" smooth="yes"/>
      <point x="466.0" y="477.0"/>
      <point x="615.0" y="328.0"/>
      <point x="615.0" y="227.0" type="qcurve" smooth="yes"/>
      <point x="615.0" y="128.0"/>
      <point x="466.0" y="-22.0"/>
      <point x="351.0" y="-22.0" type="qcurve"/>
      <point x="237.0" y="-22.0"/>
      <point x="88.0" y="128.0"/>
    </contour>
  </outline>
</glyph>
<glyph name="three" format="2">
  <advance width="1661"/>
  <unicode hex="0033"/>
  <outline>
    <contour>
      <point x="-17.0" y="124.0" type="qcurve"/>
      <point x="84.0" y="322.0" type="line"/>
      <point x="176.0" y="267.0"/>
      <point x="401.0" y="204.0"/>
      <point x="490.0" y="204.0" type="qcurve" smooth="yes"/>
      <point x="676.0" y="204.0"/>
      <point x="898.0" y="317.0"/>
      <point x="898.0" y="450.0" type="qcurve" smooth="yes"/>
      <point x="898.0" y="598.0"/>
      <point x="612.0" y="685.0"/>
      <point x="369.0" y="689.0" type="qcurve" smooth="yes"/>
      <point x="285.0" y="689.0" type="line"/>
      <point x="243.0" y="893.0" type="line"/>
      <point x="390.0" y="898.0" type="line" smooth="yes"/>
      <point x="575.0" y="904.0"/>
      <point x="872.0" y="1002.0"/>
      <point x="869.0" y="1124.0" type="qcurve" smooth="yes"/>
      <point x="867.0" y="1202.0"/>
      <point x="725.0" y="1243.0"/>
      <point x="568.0" y="1243.0" type="qcurve" smooth="yes"/>
      <point x="471.0" y="1243.0"/>
      <point x="243.0" y="1209.0"/>
      <point x="153.0" y="1181.0" type="qcurve"/>
      <point x="66.0" y="1366.0" type="line"/>
      <point x="150.0" y="1404.0"/>
      <point x="530.0" y="1524.0"/>
      <point x="810.0" y="1524.0" type="qcurve" smooth="yes"/>
      <point x="1123.0" y="1524.0"/>
      <point x="1462.0" y="1344.0"/>
      <point x="1462.0" y="1186.0" type="qcurve" smooth="yes"/>
      <point x="1462.0" y="1022.0"/>
      <point x="1256.0" y="858.0"/>
      <point x="1001.0" y="817.0" type="qcurve"/>
      <point x="1001.0" y="810.0" type="line"/>
      <point x="1260.0" y="799.0"/>
      <point x="1516.0" y="647.0"/>
      <point x="1516.0" y="462.0" type="qcurve" smooth="yes"/>
      <point x="1516.0" y="249.0"/>
      <point x="1055.0" y="-30.0"/>
      <point x="701.0" y="-30.0" type="qcurve" smooth="yes"/>
      <point x="410.0" y="-30.0"/>
      <point x="68.0" y="69.0"/>
    </contour>
  </outline>
</glyph>
<glyph name="four" format="2">
  <advance width="1499"/>
  <unicode hex="0034"/>
  <outline>
    <contour>
      <point x="18.0" y="536.0" type="line"/>
      <point x="840.0" y="1450.0" type="line"/>
      <point x="1223.0" y="1452.0" type="line"/>
      <point x="1309.0" y="1367.0" type="line"/>
      <point x="1290.0" y="523.0" type="line"/>
      <point x="1302.0" y="209.0" type="line"/>
      <point x="1523.0" y="174.0" type="line"/>
      <point x="1523.0" y="0.0" type="line"/>
      <point x="464.0" y="0.0" type="line"/>
      <point x="464.0" y="174.0" type="line"/>
      <point x="786.0" y="209.0" type="line"/>
      <point x="786.0" y="521.0" type="line"/>
      <point x="780.0" y="1098.0" type="line"/>
      <point x="298.0" y="607.0" type="line"/>
      <point x="300.0" y="588.0" type="line"/>
      <point x="1435.0" y="620.0" type="line"/>
      <point x="1435.0" y="422.0" type="line"/>
      <point x="46.0" y="371.0" type="line"/>
    </contour>
  </outline>
</glyph>
<glyph name="eight" format="2">
  <advance width="1772"/>
  <unicode hex="0038"/>
  <outline>
    <contour>
      <point x="57.0" y="351.0" type="qcurve" smooth="yes"/>
      <point x="57.0" y="511.0"/>
      <point x="410.0" y="747.0"/>
      <point x="719.0" y="827.0" type="qcurve"/>
      <point x="878.0" y="753.0" type="line"/>
      <point x="764.0" y="667.0"/>
      <point x="599.0" y="459.0"/>
      <point x="599.0" y="336.0" type="qcurve" smooth="yes"/>
      <point x="599.0" y="236.0"/>
      <point x="731.0" y="168.0"/>
      <point x="864.0" y="168.0" type="qcurve" smooth="yes"/>
      <point x="1024.0" y="168.0"/>
      <point x="1162.0" y="260.0"/>
      <point x="1162.0" y="346.0" type="qcurve" smooth="yes"/>
      <point x="1162.0" y="434.0"/>
      <point x="970.0" y="580.0"/>
      <point x="727.0" y="649.0" type="qcurve" smooth="yes"/>
      <point x="419.0" y="738.0"/>
      <point x="191.0" y="963.0"/>
      <point x="195.0" y="1137.0" type="qcurve" smooth="yes"/>
      <point x="199.0" y="1308.0"/>
      <point x="501.0" y="1505.0"/>
      <point x="861.0" y="1505.0" type="qcurve" smooth="yes"/>
      <point x="1218.0" y="1505.0"/>
      <point x="1555.0" y="1345.0"/>
      <point x="1555.0" y="1189.0" type="qcurve" smooth="yes"/>
      <point x="1555.0" y="1056.0"/>
      <point x="1274.0" y="846.0"/>
      <point x="1022.0" y="783.0" type="qcurve"/>
      <point x="838.0" y="855.0" type="line"/>
      <point x="987.0" y="923.0"/>
      <point x="1103.0" y="1098.0"/>
      <point x="1103.0" y="1189.0" type="qcurve" smooth="yes"/>
      <point x="1103.0" y="1260.0"/>
      <point x="975.0" y="1293.0"/>
      <point x="850.0" y="1293.0" type="qcurve" smooth="yes"/>
      <point x="723.0" y="1293.0"/>
      <point x="655.0" y="1273.0"/>
      <point x="655.0" y="1207.0" type="qcurve" smooth="yes"/>
      <point x="655.0" y="1125.0"/>
      <point x="815.0" y="1002.0"/>
      <point x="1092.0" y="925.0" type="qcurve" smooth="yes"/>
      <point x="1375.0" y="847.0"/>
      <point x="1696.0" y="607.0"/>
      <point x="1696.0" y="414.0" type="qcurve" smooth="yes"/>
      <point x="1696.0" y="223.0"/>
      <point x="1300.0" y="-30.0"/>
      <point x="867.0" y="-30.0" type="qcurve" smooth="yes"/>
      <point x="458.0" y="-30.0"/>
      <point x="57.0" y="174.0"/>
    </contour>
  </outline>
</glyph>
<glyph name="nine" format="2">
  <advance width="1592"/>
  <unicode hex="0039"/>
  <outline>
    <contour>
      <point x="80.0" y="1003.0" type="qcurve" smooth="yes"/>
      <point x="80.0" y="1247.0"/>
      <point x="488.0" y="1530.0"/>
      <point x="830.0" y="1530.0" type="qcurve" smooth="yes"/>
      <point x="1193.0" y="1530.0"/>
      <point x="1540.0" y="1219.0"/>
      <point x="1540.0" y="829.0" type="qcurve" smooth="yes"/>
      <point x="1540.0" y="430.0"/>
      <point x="901.0" y="-46.0"/>
      <point x="287.0" y="-32.0" type="qcurve"/>
      <point x="329.0" y="204.0" type="line"/>
      <point x="629.0" y="187.0"/>
      <point x="1018.0" y="558.0"/>
      <point x="1016.0" y="870.0" type="qcurve" smooth="yes"/>
      <point x="1014.0" y="1177.0"/>
      <point x="961.0" y="1332.0"/>
      <point x="810.0" y="1332.0" type="qcurve" smooth="yes"/>
      <point x="725.0" y="1332.0"/>
      <point x="554.0" y="1216.0"/>
      <point x="554.0" y="1028.0" type="qcurve" smooth="yes"/>
      <point x="554.0" y="843.0"/>
      <point x="582.0" y="722.0"/>
      <point x="646.0" y="722.0" type="qcurve" smooth="yes"/>
      <point x="758.0" y="722.0"/>
      <point x="853.0" y="746.0"/>
      <point x="877.0" y="761.0" type="qcurve"/>
      <point x="908.0" y="614.0" type="line"/>
      <point x="880.0" y="589.0"/>
      <point x="670.0" y="525.0"/>
      <point x="594.0" y="525.0" type="qcurve" smooth="yes"/>
      <point x="335.0" y="525.0"/>
      <point x="80.0" y="756.0"/>
    </contour>
  </outline>
</glyph>
<glyph name="greater" format="2">
  <advance width="1297"/>
  <unicode hex="003E"/>
  <outline>
    <contour>
      <point x="173.0" y="369.0" type="qcurve" smooth="yes"/>
      <point x="287.0" y="442.0"/>
      <point x="585.0" y="597.0"/>
      <point x="669.0" y="637.0" type="qcurve"/>
      <point x="575.0" y="686.0"/>
      <point x="313.0" y="858.0"/>
      <point x="173.0" y="961.0" type="qcurve" smooth="yes"/>
      <point x="79.0" y="1040.0"/>
      <point x="223.0" y="1263.0"/>
      <point x="331.0" y="1190.0" type="qcurve" smooth="yes"/>
      <point x="427.0" y="1130.0"/>
      <point x="1208.0" y="622.0"/>
      <point x="1211.0" y="622.0" type="qcurve"/>
      <point x="1213.0" y="622.0"/>
      <point x="409.0" y="192.0"/>
      <point x="310.0" y="124.0" type="qcurve" smooth="yes"/>
      <point x="216.0" y="58.0"/>
      <point x="78.0" y="289.0"/>
    </contour>
  </outline>
</glyph>
<glyph name="at" format="2">
  <advance width="2343"/>
  <unicode hex="0040"/>
  <outline>
    <contour>
      <point x="89.0" y="711.0" type="qcurve" smooth="yes"/>
      <point x="89.0" y="1105.0"/>
      <point x="736.0" y="1529.0"/>
      <point x="1154.0" y="1529.0" type="qcurve" smooth="yes"/>
      <point x="1611.0" y="1529.0"/>
      <point x="2215.0" y="1127.0"/>
      <point x="2215.0" y="776.0" type="qcurve" smooth="yes"/>
      <point x="2215.0" y="527.0"/>
      <point x="1854.0" y="306.0"/>
      <point x="1598.0" y="306.0" type="qcurve" smooth="yes"/>
      <point x="1495.0" y="306.0"/>
      <point x="1389.0" y="346.0"/>
      <point x="1344.0" y="382.0" type="qcurve"/>
      <point x="1290.0" y="345.0"/>
      <point x="1140.0" y="313.0"/>
      <point x="1045.0" y="313.0" type="qcurve" smooth="yes"/>
      <point x="824.0" y="313.0"/>
      <point x="632.0" y="416.0"/>
      <point x="632.0" y="558.0" type="qcurve" smooth="yes"/>
      <point x="632.0" y="686.0"/>
      <point x="905.0" y="837.0"/>
      <point x="1356.0" y="920.0" type="qcurve"/>
      <point x="1367.0" y="779.0" type="line"/>
      <point x="1173.0" y="743.0"/>
      <point x="997.0" y="622.0"/>
      <point x="997.0" y="572.0" type="qcurve" smooth="yes"/>
      <point x="997.0" y="510.0"/>
      <point x="1038.0" y="476.0"/>
      <point x="1126.0" y="476.0" type="qcurve" smooth="yes"/>
      <point x="1199.0" y="476.0"/>
      <point x="1296.0" y="500.0"/>
      <point x="1306.0" y="522.0" type="qcurve"/>
      <point x="1309.0" y="837.0" type="line" smooth="yes"/>
      <point x="1310.0" y="917.0"/>
      <point x="1183.0" y="995.0"/>
      <point x="1066.0" y="995.0" type="qcurve" smooth="yes"/>
      <point x="1007.0" y="995.0"/>
      <point x="883.0" y="981.0"/>
      <point x="849.0" y="957.0" type="qcurve"/>
      <point x="846.0" y="951.0"/>
      <point x="830.0" y="918.0"/>
      <point x="806.0" y="908.0" type="qcurve" smooth="yes"/>
      <point x="769.0" y="902.0"/>
      <point x="677.0" y="974.0"/>
      <point x="663.0" y="1003.0" type="qcurve" smooth="yes"/>
      <point x="651.0" y="1026.0"/>
      <point x="669.0" y="1050.0"/>
      <point x="683.0" y="1057.0" type="qcurve" smooth="yes"/>
      <point x="735.0" y="1096.0"/>
      <point x="941.0" y="1184.0"/>
      <point x="1125.0" y="1184.0" type="qcurve" smooth="yes"/>
      <point x="1341.0" y="1184.0"/>
      <point x="1620.0" y="1040.0"/>
      <point x="1622.0" y="858.0" type="qcurve" smooth="yes"/>
      <point x="1623.0" y="474.0" type="line" smooth="yes"/>
      <point x="1641.0" y="464.0"/>
      <point x="1684.0" y="454.0"/>
      <point x="1732.0" y="454.0" type="qcurve" smooth="yes"/>
      <point x="1823.0" y="454.0"/>
      <point x="2013.0" y="568.0"/>
      <point x="2013.0" y="738.0" type="qcurve" smooth="yes"/>
      <point x="2013.0" y="983.0"/>
      <point x="1526.0" y="1350.0"/>
      <point x="1171.0" y="1350.0" type="qcurve" smooth="yes"/>
      <point x="799.0" y="1350.0"/>
      <point x="294.0" y="1047.0"/>
      <point x="298.0" y="752.0" type="qcurve" smooth="yes"/>
      <point x="303.0" y="382.0"/>
      <point x="727.0" y="84.0"/>
      <point x="1136.0" y="84.0" type="qcurve" smooth="yes"/>
      <point x="1277.0" y="84.0"/>
      <point x="1539.0" y="105.0"/>
      <point x="1638.0" y="150.0" type="qcurve"/>
      <point x="1678.0" y="4.0" type="line"/>
      <point x="1574.0" y="-53.0"/>
      <point x="1276.0" y="-71.0"/>
      <point x="1121.0" y="-71.0" type="qcurve" smooth="yes"/>
      <point x="624.0" y="-71.0"/>
      <point x="89.0" y="292.0"/>
    </contour>
  </outline>
</glyph>
<glyph name="A" format="2">
  <advance width="2252"/>
  <unicode hex="0041"/>
  <outline>
    <contour>
      <point x="68.0" y="-1.0" type="line"/>
      <point x="70.0" y="193.0" type="line"/>
      <point x="268.0" y="227.0" type="line"/>
      <point x="485.0" y="714.0" type="line"/>
      <point x="882.0" y="1500.0" type="line"/>
      <point x="1415.0" y="1500.0" type="line"/>
      <point x="1739.0" y="822.0" type="line"/>
      <point x="2009.0" y="227.0" type="line"/>
      <point x="2184.0" y="193.0" type="line"/>
      <point x="2182.0" y="0.0" type="line"/>
      <point x="1232.0" y="0.0" type="line"/>
      <point x="1234.0" y="193.0" type="line"/>
      <point x="1408.0" y="231.0" type="line"/>
      <point x="1213.0" y="672.0" type="line"/>
      <point x="939.0" y="1142.0" type="line"/>
      <point x="725.0" y="715.0" type="line"/>
      <point x="502.0" y="232.0" type="line"/>
      <point x="700.0" y="193.0" type="line"/>
      <point x="698.0" y="0.0" type="line"/>
    </contour>
    <contour>
      <point x="953.0" y="665.0" type="line"/>
      <point x="1395.0" y="675.0" type="line"/>
      <point x="1428.0" y="463.0" type="line"/>
      <point x="951.0" y="456.0" type="line"/>
    </contour>
    <contour>
      <point x="493.0" y="463.0" type="line"/>
      <point x="539.0" y="674.0" type="line"/>
      <point x="953.0" y="665.0" type="line"/>
      <point x="951.0" y="456.0" type="line"/>
    </contour>
  </outline>
</glyph>
<glyph name="C" format="2">
  <advance width="1990"/>
  <unicode hex="0043"/>
  <outline>
    <contour>
      <point x="85.0" y="719.0" type="qcurve" smooth="yes"/>
      <point x="85.0" y="1140.0"/>
      <point x="725.0" y="1520.0"/>
      <point x="1135.0" y="1520.0" type="qcurve" smooth="yes"/>
      <point x="1410.0" y="1520.0"/>
      <point x="1639.0" y="1455.0"/>
      <point x="1718.0" y="1385.0" type="qcurve"/>
      <point x="1776.0" y="1501.0" type="line"/>
      <point x="1981.0" y="1501.0" type="line"/>
      <point x="1981.0" y="1004.0" type="line"/>
      <point x="1761.0" y="1004.0" type="line"/>
      <point x="1739.0" y="1073.0" type="line" smooth="yes"/>
      <point x="1704.0" y="1184.0"/>
      <point x="1500.0" y="1302.0"/>
      <point x="1182.0" y="1302.0" type="qcurve" smooth="yes"/>
      <point x="968.0" y="1302.0"/>
      <point x="671.0" y="1056.0"/>
      <point x="672.0" y="723.0" type="qcurve" smooth="yes"/>
      <point x="672.0" y="424.0"/>
      <point x="979.0" y="202.0"/>
      <point x="1239.0" y="202.0" type="qcurve" smooth="yes"/>
      <point x="1482.0" y="202.0"/>
      <point x="1800.0" y="368.0"/>
      <point x="1876.0" y="445.0" type="qcurve"/>
      <point x="2002.0" y="280.0" type="line"/>
      <point x="1937.0" y="182.0"/>
      <point x="1533.0" y="-27.0"/>
      <point x="1046.0" y="-27.0" type="qcurve" smooth="yes"/>
      <point x="650.0" y="-27.0"/>
      <point x="85.0" y="387.0"/>
    </contour>
  </outline>
</glyph>
<glyph name="G" format="2">
  <advance width="2451"/>
  <unicode hex="0047"/>
  <outline>
    <contour>
      <point x="85.0" y="733.0" type="qcurve" smooth="yes"/>
      <point x="85.0" y="1101.0"/>
      <point x="672.0" y="1519.0"/>
      <point x="1293.0" y="1519.0" type="qcurve" smooth="yes"/>
      <point x="1434.0" y="1519.0"/>
      <point x="1730.0" y="1521.0"/>
      <point x="1871.0" y="1476.0" type="qcurve"/>
      <point x="1887.0" y="1487.0" type="line"/>
      <point x="2087.0" y="1487.0" type="line"/>
      <point x="2087.0" y="1022.0" type="line"/>
      <point x="1867.0" y="1022.0" type="line"/>
      <point x="1812.0" y="1188.0" type="line" smooth="yes"/>
      <point x="1797.0" y="1214.0"/>
      <point x="1540.0" y="1309.0"/>
      <point x="1342.0" y="1309.0" type="qcurve" smooth="yes"/>
      <point x="1023.0" y="1309.0"/>
      <point x="674.0" y="1061.0"/>
      <point x="672.0" y="758.0" type="qcurve" smooth="yes"/>
      <point x="670.0" y="390.0"/>
      <point x="958.0" y="197.0"/>
      <point x="1251.0" y="198.0" type="qcurve" smooth="yes"/>
      <point x="1418.0" y="198.0"/>
      <point x="1642.0" y="249.0"/>
      <point x="1684.0" y="261.0" type="qcurve"/>
      <point x="1684.0" y="510.0" type="line"/>
      <point x="1460.0" y="540.0" type="line"/>
      <point x="1460.0" y="735.0" type="line"/>
      <point x="2372.0" y="735.0" type="line"/>
      <point x="2372.0" y="540.0" type="line"/>
      <point x="2226.0" y="510.0" type="line"/>
      <point x="2226.0" y="234.0" type="line"/>
      <point x="2074.0" y="103.0"/>
      <point x="1503.0" y="-24.0"/>
      <point x="1168.0" y="-27.0" type="qcurve" smooth="yes"/>
      <point x="670.0" y="-32.0"/>
      <point x="85.0" y="319.0"/>
    </contour>
  </outline>
</glyph>
<glyph name="P" format="2">
  <advance width="2122"/>
  <unicode hex="0050"/>
  <outline>
    <contour>
      <point x="90.0" y="0.0" type="line"/>
      <point x="90.0" y="180.0" type="line"/>
      <point x="308.0" y="215.0" type="line"/>
      <point x="310.0" y="754.0" type="line"/>
      <point x="308.0" y="1272.0" type="line"/>
      <point x="90.0" y="1306.0" type="line"/>
      <point x="90.0" y="1500.0" type="line"/>
      <point x="1427.0" y="1500.0" type="line" smooth="yes"/>
      <point x="1729.0" y="1500.0"/>
      <point x="2031.0" y="1274.0"/>
      <point x="2031.0" y="1058.0" type="qcurve" smooth="yes"/>
      <point x="2031.0" y="777.0"/>
      <point x="1632.0" y="522.0"/>
      <point x="1229.0" y="522.0" type="qcurve" smooth="yes"/>
      <point x="1127.0" y="522.0"/>
      <point x="854.0" y="535.0"/>
      <point x="769.0" y="551.0" type="qcurve"/>
      <point x="778.0" y="751.0" type="line"/>
      <point x="830.0" y="742.0"/>
      <point x="1067.0" y="732.0"/>
      <point x="1134.0" y="732.0" type="qcurve" smooth="yes"/>
      <point x="1320.0" y="732.0"/>
      <point x="1509.0" y="864.0"/>
      <point x="1505.0" y="1041.0" type="qcurve" smooth="yes"/>
      <point x="1502.0" y="1172.0"/>
      <point x="1322.0" y="1270.0"/>
      <point x="1184.0" y="1270.0" type="qcurve" smooth="yes"/>
      <point x="874.0" y="1270.0" type="line"/>
      <point x="853.0" y="1253.0" type="line"/>
      <point x="849.0" y="764.0" type="line"/>
      <point x="851.0" y="218.0" type="line"/>
      <point x="1061.0" y="180.0" type="line"/>
      <point x="1061.0" y="0.0" type="line"/>
    </contour>
  </outline>
</glyph>
<glyph name="R" format="2">
  <advance width="2310"/>
  <unicode hex="0052"/>
  <outline>
    <contour>
      <point x="90.0" y="0.0" type="line"/>
      <point x="90.0" y="180.0" type="line"/>
      <point x="308.0" y="215.0" type="line"/>
      <point x="310.0" y="714.0" type="line"/>
      <point x="308.0" y="1272.0" type="line"/>
      <point x="90.0" y="1306.0" type="line"/>
      <point x="90.0" y="1500.0" type="line"/>
      <point x="1523.0" y="1500.0" type="line" smooth="yes"/>
      <point x="1758.0" y="1500.0"/>
      <point x="2030.0" y="1243.0"/>
      <point x="2030.0" y="1049.0" type="qcurve" smooth="yes"/>
      <point x="2030.0" y="861.0"/>
      <point x="1761.0" y="592.0"/>
      <point x="1574.0" y="592.0" type="qcurve" smooth="yes"/>
      <point x="1495.0" y="592.0"/>
      <point x="626.0" y="600.0"/>
      <point x="575.0" y="606.0" type="qcurve"/>
      <point x="574.0" y="815.0" type="line"/>
      <point x="1278.0" y="815.0" type="line" smooth="yes"/>
      <point x="1381.0" y="815.0"/>
      <point x="1471.0" y="906.0"/>
      <point x="1471.0" y="1042.0" type="qcurve" smooth="yes"/>
      <point x="1471.0" y="1151.0"/>
      <point x="1371.0" y="1270.0"/>
      <point x="1271.0" y="1270.0" type="qcurve" smooth="yes"/>
      <point x="873.0" y="1270.0" type="line"/>
      <point x="853.0" y="1253.0" type="line"/>
      <point x="850.0" y="662.0" type="line"/>
      <point x="851.0" y="215.0" type="line"/>
      <point x="1073.0" y="180.0" type="line"/>
      <point x="1073.0" y="0.0" type="line"/>
    </contour>
    <contour>
      <point x="1245.0" y="688.0" type="line"/>
      <point x="1712.0" y="808.0" type="line"/>
      <point x="1917.0" y="412.0" type="line" smooth="yes"/>
      <point x="1979.0" y="294.0"/>
      <point x="2108.0" y="185.0"/>
      <point x="2246.0" y="180.0" type="qcurve"/>
      <point x="2246.0" y="0.0" type="line"/>
      <point x="1615.0" y="0.0" type="line"/>
      <point x="1507.0" y="111.0" type="line"/>
    </contour>
  </outline>
</glyph>
<glyph name="U" format="2">
  <advance width="2371"/>
  <unicode hex="0055"/>
  <outline>
    <contour>
      <point x="71.0" y="1307.0" type="line"/>
      <point x="71.0" y="1500.0" type="line"/>
      <point x="1070.0" y="1500.0" type="line"/>
      <point x="1070.0" y="1307.0" type="line"/>
      <point x="877.0" y="1273.0" type="line"/>
      <point x="874.0" y="864.0" type="line"/>
      <point x="875.0" y="699.0" type="line" smooth="yes"/>
      <point x="875.0" y="491.0"/>
      <point x="1002.0" y="216.0"/>
      <point x="1329.0" y="216.0" type="qcurve" smooth="yes"/>
      <point x="1658.0" y="216.0"/>
      <point x="1829.0" y="454.0"/>
      <point x="1829.0" y="713.0" type="qcurve" smooth="yes"/>
      <point x="1828.0" y="864.0" type="line"/>
      <point x="1827.0" y="1273.0" type="line"/>
      <point x="1619.0" y="1307.0" type="line"/>
      <point x="1619.0" y="1500.0" type="line"/>
      <point x="2215.0" y="1500.0" type="line"/>
      <point x="2215.0" y="1307.0" type="line"/>
      <point x="2026.0" y="1273.0" type="line"/>
      <point x="2025.0" y="864.0" type="line"/>
      <point x="2028.0" y="668.0" type="line" smooth="yes"/>
      <point x="2034.0" y="334.0"/>
      <point x="1665.0" y="-26.0"/>
      <point x="1185.0" y="-26.0" type="qcurve" smooth="yes"/>
      <point x="683.0" y="-26.0"/>
      <point x="306.0" y="291.0"/>
      <point x="308.0" y="636.0" type="qcurve" smooth="yes"/>
      <point x="309.0" y="864.0" type="line"/>
      <point x="308.0" y="1273.0" type="line"/>
    </contour>
  </outline>
</glyph>
<glyph name="V" format="2">
  <advance width="2325"/>
  <unicode hex="0056"/>
  <outline>
    <contour>
      <point x="62.0" y="1305.0" type="line"/>
      <point x="62.0" y="1500.0" type="line"/>
      <point x="1041.0" y="1500.0" type="line"/>
      <point x="1041.0" y="1305.0" type="line"/>
      <point x="851.0" y="1278.0" type="line"/>
      <point x="1043.0" y="905.0" type="line"/>
      <point x="1362.0" y="378.0" type="line"/>
      <point x="1620.0" y="862.0" type="line"/>
      <point x="1794.0" y="1271.0" type="line"/>
      <point x="1612.0" y="1305.0" type="line"/>
      <point x="1610.0" y="1500.0" type="line"/>
      <point x="2244.0" y="1500.0" type="line"/>
      <point x="2245.0" y="1305.0" type="line"/>
      <point x="2053.0" y="1276.0" type="line"/>
      <point x="1826.0" y="827.0" type="line"/>
      <point x="1446.0" y="0.0" type="line"/>
      <point x="913.0" y="0.0" type="line"/>
      <point x="509.0" y="803.0" type="line"/>
      <point x="256.0" y="1276.0" type="line"/>
    </contour>
  </outline>
</glyph>
<glyph name="W" format="2">
  <advance width="3223"/>
  <unicode hex="0057"/>
  <outline>
    <contour>
      <point x="60.0" y="1307.0" type="line"/>
      <point x="60.0" y="1500.0" type="line"/>
      <point x="1019.0" y="1500.0" type="line"/>
      <point x="1019.0" y="1307.0" type="line"/>
      <point x="832.0" y="1280.0" type="line"/>
      <point x="1023.0" y="845.0" type="line"/>
      <point x="1231.0" y="427.0" type="line"/>
      <point x="1429.0" y="933.0" type="line"/>
      <point x="1571.0" y="1247.0" type="line"/>
      <point x="1719.0" y="982.0" type="line"/>
      <point x="1612.0" y="799.0" type="line"/>
      <point x="1314.0" y="0.0" type="line"/>
      <point x="818.0" y="0.0" type="line"/>
      <point x="511.0" y="729.0" type="line"/>
      <point x="269.0" y="1278.0" type="line"/>
    </contour>
    <contour>
      <point x="1264.0" y="1302.0" type="line"/>
      <point x="1264.0" y="1500.0" type="line"/>
      <point x="2162.0" y="1500.0" type="line"/>
      <point x="2162.0" y="1302.0" type="line"/>
      <point x="1978.0" y="1276.0" type="line"/>
      <point x="2170.0" y="852.0" type="line"/>
      <point x="2380.0" y="452.0" type="line"/>
      <point x="2534.0" y="856.0" type="line"/>
      <point x="2679.0" y="1273.0" type="line"/>
      <point x="2473.0" y="1307.0" type="line"/>
      <point x="2473.0" y="1500.0" type="line"/>
      <point x="3143.0" y="1500.0" type="line"/>
      <point x="3143.0" y="1307.0" type="line"/>
      <point x="2921.0" y="1278.0" type="line"/>
      <point x="2740.0" y="800.0" type="line"/>
      <point x="2470.0" y="0.0" type="line"/>
      <point x="1977.0" y="0.0" type="line"/>
      <point x="1703.0" y="700.0" type="line"/>
      <point x="1452.0" y="1273.0" type="line"/>
    </contour>
  </outline>
</glyph>
<glyph name="X" format="2">
  <advance width="2339"/>
  <unicode hex="0058"/>
  <outline>
    <contour>
      <point x="30.0" y="0.0" type="line"/>
      <point x="30.0" y="180.0" type="line"/>
      <point x="252.0" y="214.0" type="line"/>
      <point x="1069.0" y="835.0" type="line"/>
      <point x="1209.0" y="835.0" type="line"/>
      <point x="1695.0" y="1273.0" type="line"/>
      <point x="1517.0" y="1307.0" type="line"/>
      <point x="1517.0" y="1500.0" type="line"/>
      <point x="2213.0" y="1500.0" type="line"/>
      <point x="2213.0" y="1307.0" type="line"/>
      <point x="1993.0" y="1273.0" type="line"/>
      <point x="1328.0" y="705.0" type="line"/>
      <point x="1185.0" y="705.0" type="line"/>
      <point x="556.0" y="219.0" type="line"/>
      <point x="758.0" y="180.0" type="line"/>
      <point x="758.0" y="0.0" type="line"/>
    </contour>
    <contour>
      <point x="115.0" y="1307.0" type="line"/>
      <point x="115.0" y="1500.0" type="line"/>
      <point x="1250.0" y="1500.0" type="line"/>
      <point x="1250.0" y="1307.0" type="line"/>
      <point x="1038.0" y="1273.0" type="line"/>
      <point x="1428.0" y="846.0" type="line"/>
      <point x="2044.0" y="214.0" type="line"/>
      <point x="2289.0" y="180.0" type="line"/>
      <point x="2289.0" y="0.0" type="line"/>
      <point x="1129.0" y="0.0" type="line"/>
      <point x="1129.0" y="180.0" type="line"/>
      <point x="1346.0" y="214.0" type="line"/>
      <point x="906.0" y="705.0" type="line"/>
      <point x="360.0" y="1273.0" type="line"/>
    </contour>
  </outline>
</glyph>
<glyph name="Y" format="2">
  <advance width="2176"/>
  <unicode hex="0059"/>
  <outline>
    <contour>
      <point x="60.0" y="1307.0" type="line"/>
      <point x="60.0" y="1500.0" type="line"/>
      <point x="1071.0" y="1500.0" type="line"/>
      <point x="1071.0" y="1307.0" type="line"/>
      <point x="873.0" y="1279.0" type="line"/>
      <point x="1060.0" y="1080.0" type="line"/>
      <point x="1278.0" y="810.0" type="line"/>
      <point x="1502.0" y="1051.0" type="line"/>
      <point x="1678.0" y="1273.0" type="line"/>
      <point x="1517.0" y="1307.0" type="line"/>
      <point x="1517.0" y="1500.0" type="line"/>
      <point x="2114.0" y="1500.0" type="line"/>
      <point x="2114.0" y="1307.0" type="line"/>
      <point x="1928.0" y="1273.0" type="line"/>
      <point x="1695.0" y="1020.0" type="line"/>
      <point x="1369.0" y="579.0" type="line"/>
      <point x="1370.0" y="214.0" type="line"/>
      <point x="1555.0" y="180.0" type="line"/>
      <point x="1555.0" y="0.0" type="line"/>
      <point x="634.0" y="0.0" type="line"/>
      <point x="634.0" y="180.0" type="line"/>
      <point x="822.0" y="214.0" type="line"/>
      <point x="824.0" y="581.0" type="line"/>
      <point x="500.0" y="996.0" type="line"/>
      <point x="251.0" y="1273.0" type="line"/>
    </contour>
  </outline>
</glyph>
<glyph name="backslash" format="2">
  <advance width="1124"/>
  <unicode hex="005C"/>
  <outline>
    <contour>
      <point x="-10.0" y="1473.0" type="line"/>
      <point x="315.0" y="1615.0" type="line"/>
      <point x="1157.0" y="-63.0" type="line"/>
      <point x="831.0" y="-203.0" type="line"/>
    </contour>
  </outline>
</glyph>
<glyph name="a" format="2">
  <advance width="1994"/>
  <unicode hex="0061"/>
  <outline>
    <contour>
      <point x="79.0" y="309.0" type="qcurve" smooth="yes"/>
      <point x="79.0" y="508.0"/>
      <point x="564.0" y="699.0"/>
      <point x="1176.0" y="679.0" type="qcurve"/>
      <point x="1189.0" y="501.0" type="line"/>
      <point x="874.0" y="520.0"/>
      <point x="584.0" y="404.0"/>
      <point x="589.0" y="342.0" type="qcurve" smooth="yes"/>
      <point x="592.0" y="249.0"/>
      <point x="733.0" y="189.0"/>
      <point x="831.0" y="189.0" type="qcurve" smooth="yes"/>
      <point x="982.0" y="189.0"/>
      <point x="1156.0" y="254.0"/>
      <point x="1190.0" y="285.0" type="qcurve"/>
      <point x="1194.0" y="689.0" type="line" smooth="yes"/>
      <point x="1195.0" y="795.0"/>
      <point x="989.0" y="912.0"/>
      <point x="821.0" y="912.0" type="qcurve" smooth="yes"/>
      <point x="746.0" y="912.0"/>
      <point x="575.0" y="907.0"/>
      <point x="551.0" y="907.0" type="qcurve"/>
      <point x="579.0" y="899.0"/>
      <point x="605.0" y="855.0"/>
      <point x="603.0" y="806.0" type="qcurve" smooth="yes"/>
      <point x="596.0" y="751.0"/>
      <point x="502.0" y="669.0"/>
      <point x="413.0" y="664.0" type="qcurve" smooth="yes"/>
      <point x="323.0" y="659.0"/>
      <point x="213.0" y="721.0"/>
      <point x="213.0" y="799.0" type="qcurve" smooth="yes"/>
      <point x="213.0" y="942.0"/>
      <point x="575.0" y="1130.0"/>
      <point x="976.0" y="1130.0" type="qcurve" smooth="yes"/>
      <point x="1342.0" y="1130.0"/>
      <point x="1717.0" y="928.0"/>
      <point x="1721.0" y="724.0" type="qcurve" smooth="yes"/>
      <point x="1729.0" y="216.0" type="line"/>
      <point x="1934.0" y="181.0" type="line"/>
      <point x="1934.0" y="0.0" type="line"/>
      <point x="1281.0" y="0.0" type="line"/>
      <point x="1216.0" y="51.0" type="line"/>
      <point x="1209.0" y="106.0" type="line"/>
      <point x="1149.0" y="58.0"/>
      <point x="880.0" y="-22.0"/>
      <point x="669.0" y="-22.0" type="qcurve" smooth="yes"/>
      <point x="343.0" y="-22.0"/>
      <point x="79.0" y="113.0"/>
    </contour>
  </outline>
</glyph>
<glyph name="e" format="2">
  <advance width="1768"/>
  <unicode hex="0065"/>
  <outline>
    <contour>
      <point x="81.0" y="541.0" type="qcurve" smooth="yes"/>
      <point x="81.0" y="808.0"/>
      <point x="569.0" y="1135.0"/>
      <point x="960.0" y="1135.0" type="qcurve" smooth="yes"/>
      <point x="1304.0" y="1135.0"/>
      <point x="1757.0" y="881.0"/>
      <point x="1783.0" y="647.0" type="qcurve"/>
      <point x="1783.0" y="485.0" type="line"/>
      <point x="536.0" y="485.0" type="line"/>
      <point x="536.0" y="675.0" type="line"/>
      <point x="1330.0" y="675.0" type="line"/>
      <point x="1319.0" y="821.0"/>
      <point x="1118.0" y="932.0"/>
      <point x="988.0" y="932.0" type="qcurve" smooth="yes"/>
      <point x="851.0" y="932.0"/>
      <point x="616.0" y="796.0"/>
      <point x="617.0" y="584.0" type="qcurve" smooth="yes"/>
      <point x="619.0" y="389.0"/>
      <point x="863.0" y="195.0"/>
      <point x="1065.0" y="195.0" type="qcurve" smooth="yes"/>
      <point x="1262.0" y="195.0"/>
      <point x="1532.0" y="289.0"/>
      <point x="1629.0" y="355.0" type="qcurve"/>
      <point x="1731.0" y="182.0" type="line"/>
      <point x="1655.0" y="102.0"/>
      <point x="1238.0" y="-35.0"/>
      <point x="961.0" y="-35.0" type="qcurve" smooth="yes"/>
      <point x="600.0" y="-35.0"/>
      <point x="81.0" y="283.0"/>
    </contour>
  </outline>
</glyph>
<glyph name="f" format="2">
  <advance width="1178"/>
  <unicode hex="0066"/>
  <outline>
    <contour>
      <point x="112.0" y="0.0" type="line"/>
      <point x="112.0" y="181.0" type="line"/>
      <point x="283.0" y="216.0" type="line"/>
      <point x="298.0" y="577.0" type="line"/>
      <point x="301.0" y="849.0" type="line"/>
      <point x="77.0" y="867.0" type="line"/>
      <point x="77.0" y="1028.0" type="line"/>
      <point x="301.0" y="1074.0" type="line"/>
      <point x="293.0" y="1063.0" type="line" smooth="yes"/>
      <point x="291.0" y="1272.0"/>
      <point x="570.0" y="1515.0"/>
      <point x="831.0" y="1515.0" type="qcurve" smooth="yes"/>
      <point x="964.0" y="1515.0"/>
      <point x="1211.0" y="1459.0"/>
      <point x="1268.0" y="1426.0" type="qcurve" smooth="yes"/>
      <point x="1314.0" y="1402.0" type="line"/>
      <point x="1290.0" y="1177.0" type="line"/>
      <point x="1268.0" y="1190.0" type="line" smooth="yes"/>
      <point x="1211.0" y="1211.0"/>
      <point x="1059.0" y="1249.0"/>
      <point x="1007.0" y="1249.0" type="qcurve" smooth="yes"/>
      <point x="926.0" y="1249.0"/>
      <point x="841.0" y="1193.0"/>
      <point x="840.0" y="1090.0" type="qcurve" smooth="yes"/>
      <point x="837.0" y="1063.0" type="line"/>
      <point x="1189.0" y="1063.0" type="line"/>
      <point x="1189.0" y="863.0" type="line"/>
      <point x="835.0" y="863.0" type="line"/>
      <point x="832.0" y="577.0" type="line"/>
      <point x="835.0" y="216.0" type="line"/>
      <point x="1061.0" y="181.0" type="line"/>
      <point x="1061.0" y="0.0" type="line"/>
    </contour>
  </outline>
</glyph>
<glyph name="j" format="2">
  <advance width="955"/>
  <unicode hex="006A"/>
  <outline>
    <contour>
      <point x="-8.0" y="-476.0" type="qcurve"/>
      <point x="-8.0" y="-275.0" type="line"/>
      <point x="154.0" y="-280.0"/>
      <point x="247.0" y="-144.0"/>
      <point x="246.0" y="10.0" type="qcurve" smooth="yes"/>
      <point x="245.0" y="577.0" type="line"/>
      <point x="243.0" y="850.0" type="line"/>
      <point x="65.0" y="880.0" type="line"/>
      <point x="65.0" y="1070.0" type="line"/>
      <point x="660.0" y="1102.0" type="line"/>
      <point x="737.0" y="1102.0" type="line"/>
      <point x="780.0" y="1053.0" type="line"/>
      <point x="774.0" y="577.0" type="line"/>
      <point x="777.0" y="1.0" type="line" smooth="yes"/>
      <point x="778.0" y="-243.0"/>
      <point x="456.0" y="-498.0"/>
    </contour>
    <contour>
      <point x="201.0" y="1358.0" type="qcurve" smooth="yes"/>
      <point x="201.0" y="1446.0"/>
      <point x="360.0" y="1560.0"/>
      <point x="507.0" y="1560.0" type="qcurve" smooth="yes"/>
      <point x="648.0" y="1560.0"/>
      <point x="818.0" y="1449.0"/>
      <point x="817.0" y="1358.0" type="qcurve" smooth="yes"/>
      <point x="817.0" y="1281.0"/>
      <point x="665.0" y="1164.0"/>
      <point x="509.0" y="1164.0" type="qcurve" smooth="yes"/>
      <point x="362.0" y="1164.0"/>
      <point x="201.0" y="1284.0"/>
    </contour>
  </outline>
</glyph>
<glyph name="l" format="2">
  <advance width="1033"/>
  <unicode hex="006C"/>
  <outline>
    <contour>
      <point x="98.0" y="0.0" type="line"/>
      <point x="98.0" y="181.0" type="line"/>
      <point x="280.0" y="216.0" type="line"/>
      <point x="282.0" y="527.0" type="line"/>
      <point x="280.0" y="1277.0" type="line"/>
      <point x="84.0" y="1307.0" type="line"/>
      <point x="84.0" y="1500.0" type="line"/>
      <point x="724.0" y="1534.0" type="line"/>
      <point x="761.0" y="1532.0" type="line"/>
      <point x="813.0" y="1486.0" type="line"/>
      <point x="811.0" y="527.0" type="line"/>
      <point x="813.0" y="216.0" type="line"/>
      <point x="990.0" y="181.0" type="line"/>
      <point x="990.0" y="0.0" type="line"/>
    </contour>
  </outline>
</glyph>
<glyph name="r" format="2">
  <advance width="1535"/>
  <unicode hex="0072"/>
  <anchor x="330.0" y="2.0" name="bottom"/>
  <outline>
    <contour>
      <point x="80.0" y="0.0" type="line"/>
      <point x="80.0" y="181.0" type="line"/>
      <point x="274.0" y="216.0" type="line"/>
      <point x="276.0" y="547.0" type="line"/>
      <point x="275.0" y="850.0" type="line"/>
      <point x="67.0" y="880.0" type="line"/>
      <point x="67.0" y="1072.0" type="line"/>
      <point x="728.0" y="1112.0" type="line"/>
      <point x="768.0" y="1085.0" type="line"/>
      <point x="785.0" y="894.0" type="line"/>
      <point x="896.0" y="999.0"/>
      <point x="1232.0" y="1106.0"/>
      <point x="1418.0" y="1106.0" type="qcurve" smooth="yes"/>
      <point x="1504.0" y="1106.0" type="line"/>
      <point x="1504.0" y="673.0" type="line"/>
      <point x="1291.0" y="673.0" type="line"/>
      <point x="1249.0" y="809.0" type="line"/>
      <point x="1144.0" y="815.0"/>
      <point x="881.0" y="744.0"/>
      <point x="813.0" y="702.0" type="qcurve"/>
      <point x="810.0" y="547.0" type="line"/>
      <point x="812.0" y="216.0" type="line"/>
      <point x="1047.0" y="181.0" type="line"/>
      <point x="1047.0" y="0.0" type="line"/>
    </contour>
  </outline>
</glyph>
<glyph name="s" format="2">
  <advance width="1654"/>
  <unicode hex="0073"/>
  <outline>
    <contour>
      <point x="100.0" y="0.0" type="line"/>
      <point x="100.0" y="355.0" type="line"/>
      <point x="314.0" y="355.0" type="line"/>
      <point x="350.0" y="211.0" type="line" smooth="yes"/>
      <point x="404.0" y="182.0"/>
      <point x="667.0" y="141.0"/>
      <point x="782.0" y="141.0" type="qcurve" smooth="yes"/>
      <point x="938.0" y="141.0"/>
      <point x="1089.0" y="180.0"/>
      <point x="1089.0" y="226.0" type="qcurve" smooth="yes"/>
      <point x="1089.0" y="272.0"/>
      <point x="883.0" y="300.0"/>
      <point x="680.0" y="341.0" type="qcurve" smooth="yes"/>
      <point x="370.0" y="409.0"/>
      <point x="131.0" y="618.0"/>
      <point x="131.0" y="789.0" type="qcurve" smooth="yes"/>
      <point x="131.0" y="930.0"/>
      <point x="481.0" y="1136.0"/>
      <point x="818.0" y="1136.0" type="qcurve" smooth="yes"/>
      <point x="982.0" y="1136.0"/>
      <point x="1233.0" y="1102.0"/>
      <point x="1312.0" y="1084.0" type="qcurve"/>
      <point x="1335.0" y="1100.0" type="line"/>
      <point x="1520.0" y="1100.0" type="line"/>
      <point x="1520.0" y="804.0" type="line"/>
      <point x="1301.0" y="804.0" type="line"/>
      <point x="1268.0" y="880.0" type="line" smooth="yes"/>
      <point x="1214.0" y="926.0"/>
      <point x="965.0" y="954.0"/>
      <point x="869.0" y="954.0" type="qcurve" smooth="yes"/>
      <point x="725.0" y="954.0"/>
      <point x="591.0" y="899.0"/>
      <point x="591.0" y="872.0" type="qcurve" smooth="yes"/>
      <point x="591.0" y="837.0"/>
      <point x="755.0" y="802.0"/>
      <point x="988.0" y="751.0" type="qcurve" smooth="yes"/>
      <point x="1310.0" y="676.0"/>
      <point x="1585.0" y="495.0"/>
      <point x="1585.0" y="346.0" type="qcurve" smooth="yes"/>
      <point x="1585.0" y="177.0"/>
      <point x="1196.0" y="-35.0"/>
      <point x="872.0" y="-35.0" type="qcurve" smooth="yes"/>
      <point x="696.0" y="-35.0"/>
      <point x="400.0" y="17.0"/>
      <point x="307.0" y="31.0" type="qcurve"/>
      <point x="266.0" y="0.0" type="line"/>
    </contour>
  </outline>
</glyph>
<glyph name="u" format="2">
  <advance width="2295"/>
  <unicode hex="0075"/>
  <outline>
    <contour>
      <point x="36.0" y="880.0" type="line"/>
      <point x="36.0" y="1070.0" type="line"/>
      <point x="635.0" y="1102.0" type="line"/>
      <point x="727.0" y="1102.0" type="line"/>
      <point x="780.0" y="1053.0" type="line"/>
      <point x="778.0" y="573.0" type="line"/>
      <point x="778.0" y="445.0" type="line" smooth="yes"/>
      <point x="778.0" y="350.0"/>
      <point x="942.0" y="276.0"/>
      <point x="1087.0" y="276.0" type="qcurve" smooth="yes"/>
      <point x="1174.0" y="275.0"/>
      <point x="1416.0" y="309.0"/>
      <point x="1497.0" y="353.0" type="qcurve"/>
      <point x="1498.0" y="523.0" type="line"/>
      <point x="1496.0" y="850.0" type="line"/>
      <point x="1294.0" y="880.0" type="line"/>
      <point x="1294.0" y="1070.0" type="line"/>
      <point x="1891.0" y="1102.0" type="line"/>
      <point x="1983.0" y="1102.0" type="line"/>
      <point x="2036.0" y="1053.0" type="line"/>
      <point x="2033.0" y="523.0" type="line"/>
      <point x="2036.0" y="246.0" type="line"/>
      <point x="2239.0" y="216.0" type="line"/>
      <point x="2239.0" y="26.0" type="line"/>
      <point x="1584.0" y="-8.0" type="line"/>
      <point x="1521.0" y="39.0" type="line"/>
      <point x="1497.0" y="128.0" type="line"/>
      <point x="1398.0" y="58.0"/>
      <point x="1015.0" y="-23.0"/>
      <point x="825.0" y="-23.0" type="qcurve" smooth="yes"/>
      <point x="516.0" y="-23.0"/>
      <point x="238.0" y="192.0"/>
      <point x="238.0" y="325.0" type="qcurve" smooth="yes"/>
      <point x="238.0" y="397.0"/>
      <point x="243.0" y="626.0"/>
      <point x="242.0" y="601.0" type="qcurve" smooth="yes"/>
      <point x="237.0" y="850.0" type="line"/>
    </contour>
  </outline>
</glyph>
<glyph name="x" format="2">
  <advance width="1906"/>
  <unicode hex="0078"/>
  <outline>
    <contour>
      <point x="54.0" y="0.0" type="line"/>
      <point x="54.0" y="181.0" type="line"/>
      <point x="279.0" y="217.0" type="line"/>
      <point x="767.0" y="611.0" type="line"/>
      <point x="966.0" y="644.0" type="line"/>
      <point x="1299.0" y="883.0" type="line"/>
      <point x="1177.0" y="913.0" type="line"/>
      <point x="1177.0" y="1100.0" type="line"/>
      <point x="1793.0" y="1100.0" type="line"/>
      <point x="1793.0" y="910.0" type="line"/>
      <point x="1584.0" y="875.0" type="line"/>
      <point x="1156.0" y="534.0" type="line"/>
      <point x="963.0" y="513.0" type="line"/>
      <point x="582.0" y="216.0" type="line"/>
      <point x="705.0" y="181.0" type="line"/>
      <point x="705.0" y="0.0" type="line"/>
    </contour>
    <contour>
      <point x="59.0" y="910.0" type="line"/>
      <point x="59.0" y="1100.0" type="line"/>
      <point x="1029.0" y="1100.0" type="line"/>
      <point x="1029.0" y="913.0" type="line"/>
      <point x="913.0" y="876.0" type="line"/>
      <point x="1222.0" y="607.0" type="line"/>
      <point x="1675.0" y="217.0" type="line"/>
      <point x="1882.0" y="181.0" type="line"/>
      <point x="1882.0" y="0.0" type="line"/>
      <point x="866.0" y="0.0" type="line"/>
      <point x="866.0" y="181.0" type="line"/>
      <point x="1009.0" y="215.0" type="line"/>
      <point x="680.0" y="524.0" type="line"/>
      <point x="246.0" y="875.0" type="line"/>
    </contour>
  </outline>
</glyph>
<glyph name="y" format="2">
  <advance width="2040"/>
  <unicode hex="0079"/>
  <outline>
    <contour>
      <point x="20.0" y="907.0" type="line"/>
      <point x="20.0" y="1100.0" type="line"/>
      <point x="996.0" y="1100.0" type="line"/>
      <point x="996.0" y="913.0" type="line"/>
      <point x="822.0" y="880.0" type="line"/>
      <point x="996.0" y="632.0" type="line"/>
      <point x="1208.0" y="329.0" type="line"/>
      <point x="1394.0" y="634.0" type="line"/>
      <point x="1534.0" y="878.0" type="line"/>
      <point x="1354.0" y="913.0" type="line"/>
      <point x="1354.0" y="1100.0" type="line"/>
      <point x="1970.0" y="1100.0" type="line"/>
      <point x="1970.0" y="907.0" type="line"/>
      <point x="1777.0" y="872.0" type="line"/>
      <point x="1590.0" y="588.0" type="line"/>
      <point x="1206.0" y="-68.0" type="line" smooth="yes"/>
      <point x="1087.0" y="-315.0"/>
      <point x="660.0" y="-502.0"/>
      <point x="419.0" y="-502.0" type="qcurve"/>
      <point x="143.0" y="-438.0" type="line"/>
      <point x="143.0" y="-241.0" type="line"/>
      <point x="402.0" y="-249.0" type="line" smooth="yes"/>
      <point x="555.0" y="-254.0"/>
      <point x="823.0" y="-188.0"/>
      <point x="906.0" y="-81.0" type="qcurve" smooth="yes"/>
      <point x="984.0" y="43.0" type="line"/>
      <point x="763.0" y="58.0" type="line"/>
      <point x="471.0" y="507.0" type="line"/>
      <point x="216.0" y="872.0" type="line"/>
    </contour>
  </outline>
</glyph>
<glyph name="braceright" format="2">
  <advance width="864"/>
  <unicode hex="007D"/>
  <outline>
    <contour>
      <point x="39.0" y="-477.0" type="qcurve"/>
      <point x="39.0" y="-310.0" type="line"/>
      <point x="81.0" y="-313.0"/>
      <point x="185.0" y="-317.0"/>
      <point x="247.0" y="-317.0" type="qcurve" smooth="yes"/>
      <point x="319.0" y="-317.0"/>
      <point x="396.0" y="-257.0"/>
      <point x="396.0" y="-184.0" type="qcurve" smooth="yes"/>
      <point x="396.0" y="-84.0"/>
      <point x="141.0" y="230.0"/>
      <point x="141.0" y="331.0" type="qcurve" smooth="yes"/>
      <point x="141.0" y="408.0"/>
      <point x="277.0" y="531.0"/>
      <point x="431.0" y="554.0" type="qcurve"/>
      <point x="282.0" y="576.0"/>
      <point x="141.0" y="697.0"/>
      <point x="141.0" y="792.0" type="qcurve" smooth="yes"/>
      <point x="141.0" y="883.0"/>
      <point x="306.0" y="1107.0"/>
      <point x="306.0" y="1208.0" type="qcurve" smooth="yes"/>
      <point x="306.0" y="1287.0"/>
      <point x="230.0" y="1343.0"/>
      <point x="160.0" y="1343.0" type="qcurve" smooth="yes"/>
      <point x="120.0" y="1343.0"/>
      <point x="78.0" y="1340.0"/>
      <point x="36.0" y="1338.0" type="qcurve"/>
      <point x="36.0" y="1497.0" type="line"/>
      <point x="66.0" y="1502.0"/>
      <point x="313.0" y="1510.0"/>
      <point x="370.0" y="1510.0" type="qcurve" smooth="yes"/>
      <point x="502.0" y="1510.0"/>
      <point x="737.0" y="1343.0"/>
      <point x="737.0" y="1184.0" type="qcurve" smooth="yes"/>
      <point x="737.0" y="1066.0"/>
      <point x="598.0" y="839.0"/>
      <point x="598.0" y="741.0" type="qcurve" smooth="yes"/>
      <point x="598.0" y="677.0"/>
      <point x="705.0" y="637.0"/>
      <point x="731.0" y="634.0" type="qcurve" smooth="yes"/>
      <point x="861.0" y="624.0" type="line"/>
      <point x="861.0" y="446.0" type="line"/>
      <point x="599.0" y="446.0" type="line"/>
      <point x="599.0" y="364.0" type="line"/>
      <point x="599.0" y="246.0"/>
      <point x="827.0" y="-50.0"/>
      <point x="827.0" y="-168.0" type="qcurve" smooth="yes"/>
      <point x="827.0" y="-327.0"/>
      <point x="601.0" y="-495.0"/>
      <point x="436.0" y="-495.0" type="qcurve" smooth="yes"/>
      <point x="379.0" y="-495.0"/>
      <point x="69.0" y="-483.0"/>
    </contour>
  </outline>
</glyph>
<glyph name="exclamdown" format="2">
  <advance width="789"/>
  <unicode hex="00A1"/>
  <outline>
    <contour>
      <point x="628.0" y="1144.0" type="qcurve" smooth="yes"/>
      <point x="628.0" y="1055.0"/>
      <point x="494.0" y="929.0"/>
      <point x="389.0" y="929.0" type="qcurve" smooth="yes"/>
      <point x="284.0" y="929.0"/>
      <point x="150.0" y="1055.0"/>
      <point x="150.0" y="1144.0" type="qcurve" smooth="yes"/>
      <point x="150.0" y="1232.0"/>
      <point x="284.0" y="1358.0"/>
      <point x="389.0" y="1358.0" type="qcurve" smooth="yes"/>
      <point x="494.0" y="1358.0"/>
      <point x="628.0" y="1232.0"/>
    </contour>
    <contour>
      <point x="657.0" y="58.0" type="line" smooth="yes"/>
      <point x="664.0" y="-27.0"/>
      <point x="487.0" y="-142.0"/>
      <point x="395.0" y="-142.0" type="qcurve" smooth="yes"/>
      <point x="302.0" y="-143.0"/>
      <point x="118.0" y="-27.0"/>
      <point x="126.0" y="58.0" type="qcurve" smooth="yes"/>
      <point x="152.0" y="268.0" type="line"/>
      <point x="249.0" y="576.0" type="line"/>
      <point x="305.0" y="811.0" type="line"/>
      <point x="479.0" y="811.0" type="line"/>
      <point x="535.0" y="576.0" type="line"/>
      <point x="631.0" y="268.0" type="line"/>
    </contour>
  </outline>
</glyph>
<glyph name="registered" format="2">
  <advance width="2271"/>
  <unicode hex="00AE"/>
  <outline>
    <contour>
      <point x="82.0" y="673.0" type="qcurve" smooth="yes"/>
      <point x="82.0" y="1062.0"/>
      <point x="667.0" y="1598.0"/>
      <point x="1128.0" y="1598.0" type="qcurve" smooth="yes"/>
      <point x="1586.0" y="1598.0"/>
      <point x="2189.0" y="1088.0"/>
      <point x="2189.0" y="694.0" type="qcurve" smooth="yes"/>
      <point x="2189.0" y="262.0"/>
      <point x="1605.0" y="-276.0"/>
      <point x="1152.0" y="-276.0" type="qcurve" smooth="yes"/>
      <point x="685.0" y="-276.0"/>
      <point x="82.0" y="250.0"/>
    </contour>
    <contour>
      <point x="327.0" y="668.0" type="qcurve" smooth="yes"/>
      <point x="327.0" y="333.0"/>
      <point x="802.0" y="-73.0"/>
      <point x="1156.0" y="-73.0" type="qcurve" smooth="yes"/>
      <point x="1501.0" y="-73.0"/>
      <point x="1944.0" y="356.0"/>
      <point x="1944.0" y="684.0" type="qcurve" smooth="yes"/>
      <point x="1944.0" y="984.0"/>
      <point x="1486.0" y="1397.0"/>
      <point x="1127.0" y="1397.0" type="qcurve" smooth="yes"/>
      <point x="786.0" y="1397.0"/>
      <point x="327.0" y="976.0"/>
    </contour>
    <contour>
      <point x="694.0" y="176.0" type="line"/>
      <point x="694.0" y="276.0" type="line"/>
      <point x="781.0" y="300.0" type="line"/>
      <point x="783.0" y="723.0" type="line"/>
      <point x="781.0" y="1068.0" type="line"/>
      <point x="684.0" y="1091.0" type="line"/>
      <point x="684.0" y="1209.0" type="line"/>
      <point x="1227.0" y="1209.0" type="line" smooth="yes"/>
      <point x="1385.0" y="1209.0"/>
      <point x="1578.0" y="1062.0"/>
      <point x="1578.0" y="928.0" type="qcurve" smooth="yes"/>
      <point x="1578.0" y="777.0"/>
      <point x="1351.0" y="604.0"/>
      <point x="1225.0" y="604.0" type="qcurve" smooth="yes"/>
      <point x="1174.0" y="604.0"/>
      <point x="1014.0" y="613.0"/>
      <point x="990.0" y="613.0" type="qcurve"/>
      <point x="990.0" y="748.0" type="line"/>
      <point x="1127.0" y="748.0" type="line" smooth="yes"/>
      <point x="1229.0" y="748.0"/>
      <point x="1330.0" y="828.0"/>
      <point x="1330.0" y="899.0" type="qcurve" smooth="yes"/>
      <point x="1330.0" y="986.0"/>
      <point x="1248.0" y="1048.0"/>
      <point x="1145.0" y="1048.0" type="qcurve" smooth="yes"/>
      <point x="1048.0" y="1048.0" type="line"/>
      <point x="1027.0" y="1035.0" type="line"/>
      <point x="1023.0" y="703.0" type="line"/>
      <point x="1025.0" y="300.0" type="line"/>
      <point x="1127.0" y="276.0" type="line"/>
      <point x="1127.0" y="176.0" type="line"/>
    </contour>
    <contour>
      <point x="1108.0" y="690.0" type="line"/>
      <point x="1359.0" y="718.0" type="line"/>
      <point x="1539.0" y="413.0" type="line" smooth="yes"/>
      <point x="1601.0" y="310.0"/>
      <point x="1655.0" y="296.0"/>
      <point x="1697.0" y="296.0" type="qcurve"/>
      <point x="1697.0" y="176.0" type="line"/>
      <point x="1456.0" y="176.0" type="line"/>
      <point x="1404.0" y="190.0" type="line"/>
    </contour>
  </outline>
</glyph>
<glyph name="degree" format="2">
  <advance width="1004"/>
  <unicode hex="00B0"/>
  <outline>
    <contour>
      <point x="124.0" y="1193.0" type="qcurve" smooth="yes"/>
      <point x="124.0" y="1343.0"/>
      <point x="337.0" y="1562.0"/>
      <point x="502.0" y="1562.0" type="qcurve" smooth="yes"/>
      <point x="667.0" y="1562.0"/>
      <point x="880.0" y="1343.0"/>
      <point x="880.0" y="1193.0" type="qcurve" smooth="yes"/>
      <point x="880.0" y="1046.0"/>
      <point x="667.0" y="826.0"/>
      <point x="502.0" y="826.0" type="qcurve" smooth="yes"/>
      <point x="337.0" y="826.0"/>
      <point x="124.0" y="1046.0"/>
    </contour>
    <contour>
      <point x="331.0" y="1193.0" type="qcurve" smooth="yes"/>
      <point x="331.0" y="1127.0"/>
      <point x="427.0" y="1023.0"/>
      <point x="502.0" y="1023.0" type="qcurve" smooth="yes"/>
      <point x="577.0" y="1023.0"/>
      <point x="673.0" y="1127.0"/>
      <point x="673.0" y="1193.0" type="qcurve" smooth="yes"/>
      <point x="673.0" y="1263.0"/>
      <point x="577.0" y="1365.0"/>
      <point x="502.0" y="1365.0" type="qcurve" smooth="yes"/>
      <point x="427.0" y="1365.0"/>
      <point x="331.0" y="1263.0"/>
    </contour>
  </outline>
</glyph>
<glyph name="paragraph" format="2">
  <advance width="1556"/>
  <unicode hex="00B6"/>
  <outline>
    <contour>
      <point x="1509.0" y="179.0" type="line"/>
      <point x="1509.0" y="0.0" type="line"/>
      <point x="309.0" y="0.0" type="line"/>
      <point x="309.0" y="180.0" type="line"/>
      <point x="1074.0" y="209.0" type="line"/>
      <point x="1076.0" y="637.0" type="line"/>
      <point x="1017.0" y="631.0"/>
      <point x="747.0" y="623.0"/>
      <point x="608.0" y="623.0" type="qcurve" smooth="yes"/>
      <point x="369.0" y="623.0"/>
      <point x="121.0" y="843.0"/>
      <point x="121.0" y="1034.0" type="qcurve" smooth="yes"/>
      <point x="121.0" y="1259.0"/>
      <point x="413.0" y="1500.0"/>
      <point x="615.0" y="1500.0" type="qcurve" smooth="yes"/>
      <point x="1492.0" y="1500.0" type="line"/>
      <point x="1492.0" y="1303.0" type="line"/>
      <point x="1301.0" y="1269.0" type="line"/>
      <point x="1299.0" y="694.0" type="line"/>
      <point x="1301.0" y="201.0" type="line"/>
    </contour>
    <contour>
      <point x="791.0" y="81.0" type="line"/>
      <point x="584.0" y="76.0" type="line"/>
      <point x="586.0" y="637.0" type="line"/>
      <point x="789.0" y="644.0" type="line"/>
    </contour>
  </outline>
</glyph>
<glyph name="multiply" format="2">
  <advance width="1297"/>
  <unicode hex="00D7"/>
  <outline>
    <contour>
      <point x="306.0" y="89.0" type="line"/>
      <point x="83.0" y="313.0" type="line"/>
      <point x="992.0" y="1183.0" type="line"/>
      <point x="1215.0" y="959.0" type="line"/>
    </contour>
    <contour>
      <point x="997.0" y="94.0" type="line"/>
      <point x="88.0" y="964.0" type="line"/>
      <point x="301.0" y="1178.0" type="line"/>
      <point x="1210.0" y="308.0" type="line"/>
    </contour>
  </outline>
</glyph>
<glyph name="divide" format="2">
  <advance width="1297"/>
  <unicode hex="00F7"/>
  <outline>
    <contour>
      <point x="80.0" y="486.0" type="line"/>
      <point x="80.0" y="778.0" type="line"/>
      <point x="1218.0" y="778.0" type="line"/>
      <point x="1218.0" y="486.0" type="line"/>
    </contour>
    <contour>
      <point x="434.0" y="214.0" type="qcurve" smooth="yes"/>
      <point x="434.0" y="298.0"/>
      <point x="553.0" y="427.0"/>
      <point x="647.0" y="427.0" type="qcurve" smooth="yes"/>
      <point x="741.0" y="427.0"/>
      <point x="860.0" y="298.0"/>
      <point x="860.0" y="214.0" type="qcurve" smooth="yes"/>
      <point x="860.0" y="130.0"/>
      <point x="741.0" y="2.0"/>
      <point x="647.0" y="2.0" type="qcurve" smooth="yes"/>
      <point x="553.0" y="2.0"/>
      <point x="434.0" y="130.0"/>
    </contour>
    <contour>
      <point x="434.0" y="1049.0" type="qcurve" smooth="yes"/>
      <point x="434.0" y="1134.0"/>
      <point x="553.0" y="1262.0"/>
      <point x="647.0" y="1262.0" type="qcurve" smooth="yes"/>
      <point x="741.0" y="1262.0"/>
      <point x="860.0" y="1134.0"/>
      <point x="860.0" y="1049.0" type="qcurve" smooth="yes"/>
      <point x="860.0" y="966.0"/>
      <point x="741.0" y="837.0"/>
      <point x="647.0" y="837.0" type="qcurve" smooth="yes"/>
      <point x="553.0" y="837.0"/>
      <point x="434.0" y="966.0"/>
    </contour>
  </outline>
</glyph>
<glyph name="thorn" format="2">
  <advance width="2261"/>
  <unicode hex="00FE"/>
  <outline>
    <contour>
      <point x="121.0" y="-480.0" type="line"/>
      <point x="121.0" y="-304.0" type="line"/>
      <point x="324.0" y="-269.0" type="line"/>
      <point x="326.0" y="452.0" type="line"/>
      <point x="316.0" y="1283.0" type="line"/>
      <point x="95.0" y="1313.0" type="line"/>
      <point x="95.0" y="1500.0" type="line"/>
      <point x="757.0" y="1534.0" type="line"/>
      <point x="788.0" y="1534.0" type="line"/>
      <point x="844.0" y="1488.0" type="line"/>
      <point x="837.0" y="929.0" type="line"/>
      <point x="915.0" y="1013.0"/>
      <point x="1216.0" y="1122.0"/>
      <point x="1435.0" y="1122.0" type="qcurve" smooth="yes"/>
      <point x="1754.0" y="1122.0"/>
      <point x="2183.0" y="816.0"/>
      <point x="2183.0" y="581.0" type="qcurve" smooth="yes"/>
      <point x="2183.0" y="329.0"/>
      <point x="1734.0" y="-32.0"/>
      <point x="1344.0" y="-32.0" type="qcurve" smooth="yes"/>
      <point x="1164.0" y="-32.0"/>
      <point x="921.0" y="49.0"/>
      <point x="848.0" y="91.0" type="qcurve"/>
      <point x="850.0" y="-269.0" type="line"/>
      <point x="1102.0" y="-304.0" type="line"/>
      <point x="1102.0" y="-480.0" type="line"/>
    </contour>
    <contour>
      <point x="847.0" y="349.0" type="line"/>
      <point x="893.0" y="298.0"/>
      <point x="1094.0" y="210.0"/>
      <point x="1227.0" y="210.0" type="qcurve" smooth="yes"/>
      <point x="1413.0" y="210.0"/>
      <point x="1624.0" y="391.0"/>
      <point x="1624.0" y="540.0" type="qcurve" smooth="yes"/>
      <point x="1624.0" y="686.0"/>
      <point x="1427.0" y="840.0"/>
      <point x="1236.0" y="840.0" type="qcurve" smooth="yes"/>
      <point x="1102.0" y="840.0"/>
      <point x="905.0" y="753.0"/>
      <point x="846.0" y="695.0" type="qcurve"/>
      <point x="843.0" y="518.0" type="line"/>
    </contour>
  </outline>
</glyph>
<glyph name="oe" format="2">
  <advance width="3098"/>
  <unicode hex="0153"/>
  <outline>
    <contour>
      <point x="78.0" y="550.0" type="qcurve" smooth="yes"/>
      <point x="78.0" y="810.0"/>
      <point x="607.0" y="1135.0"/>
      <point x="1024.0" y="1135.0" type="qcurve" smooth="yes"/>
      <point x="1184.0" y="1135.0"/>
      <point x="1533.0" y="1079.0"/>
      <point x="1658.0" y="1002.0" type="qcurve"/>
      <point x="1656.0" y="1002.0" type="line"/>
      <point x="1794.0" y="1079.0"/>
      <point x="2135.0" y="1135.0"/>
      <point x="2287.0" y="1135.0" type="qcurve" smooth="yes"/>
      <point x="2631.0" y="1135.0"/>
      <point x="3079.0" y="881.0"/>
      <point x="3105.0" y="647.0" type="qcurve"/>
      <point x="3105.0" y="495.0" type="line"/>
      <point x="1868.0" y="495.0" type="line"/>
      <point x="1868.0" y="675.0" type="line"/>
      <point x="2652.0" y="675.0" type="line"/>
      <point x="2641.0" y="821.0"/>
      <point x="2445.0" y="932.0"/>
      <point x="2315.0" y="932.0" type="qcurve" smooth="yes"/>
      <point x="2178.0" y="932.0"/>
      <point x="1948.0" y="796.0"/>
      <point x="1949.0" y="584.0" type="qcurve" smooth="yes"/>
      <point x="1951.0" y="389.0"/>
      <point x="2180.0" y="195.0"/>
      <point x="2380.0" y="195.0" type="qcurve" smooth="yes"/>
      <point x="2571.0" y="195.0"/>
      <point x="2854.0" y="289.0"/>
      <point x="2951.0" y="355.0" type="qcurve"/>
      <point x="3053.0" y="182.0" type="line"/>
      <point x="2977.0" y="102.0"/>
      <point x="2547.0" y="-35.0"/>
      <point x="2300.0" y="-35.0" type="qcurve" smooth="yes"/>
      <point x="2086.0" y="-35.0"/>
      <point x="1788.0" y="37.0"/>
      <point x="1695.0" y="73.0" type="qcurve"/>
      <point x="1683.0" y="73.0" type="line"/>
      <point x="1543.0" y="33.0"/>
      <point x="1231.0" y="-36.0"/>
      <point x="1034.0" y="-36.0" type="qcurve" smooth="yes"/>
      <point x="615.0" y="-36.0"/>
      <point x="78.0" y="274.0"/>
    </contour>
    <contour>
      <point x="630.0" y="562.0" type="qcurve" smooth="yes"/>
      <point x="632.0" y="350.0"/>
      <point x="842.0" y="164.0"/>
      <point x="1024.0" y="164.0" type="qcurve" smooth="yes"/>
      <point x="1219.0" y="164.0"/>
      <point x="1420.0" y="331.0"/>
      <point x="1420.0" y="549.0" type="qcurve" smooth="yes"/>
      <point x="1420.0" y="754.0"/>
      <point x="1209.0" y="917.0"/>
      <point x="1026.0" y="917.0" type="qcurve" smooth="yes"/>
      <point x="829.0" y="917.0"/>
      <point x="629.0" y="772.0"/>
    </contour>
  </outline>
</glyph>
<glyph name="ring" format="2">
  <advance width="1024"/>
  <unicode hex="02DA"/>
  <outline>
    <contour>
      <point x="186.0" y="1438.0" type="qcurve" smooth="yes"/>
      <point x="186.0" y="1554.0"/>
      <point x="373.0" y="1706.0"/>
      <point x="512.0" y="1706.0" type="qcurve" smooth="yes"/>
      <point x="651.0" y="1706.0"/>
      <point x="838.0" y="1554.0"/>
      <point x="838.0" y="1438.0" type="qcurve" smooth="yes"/>
      <point x="838.0" y="1322.0"/>
      <point x="651.0" y="1170.0"/>
      <point x="512.0" y="1170.0" type="qcurve" smooth="yes"/>
      <point x="373.0" y="1170.0"/>
      <point x="186.0" y="1322.0"/>
    </contour>
    <contour>
      <point x="347.0" y="1438.0" type="qcurve" smooth="yes"/>
      <point x="347.0" y="1377.0"/>
      <point x="439.0" y="1302.0"/>
      <point x="512.0" y="1302.0" type="qcurve" smooth="yes"/>
      <point x="588.0" y="1302.0"/>
      <point x="676.0" y="1372.0"/>
      <point x="676.0" y="1438.0" type="qcurve" smooth="yes"/>
      <point x="676.0" y="1498.0"/>
      <point x="585.0" y="1574.0"/>
      <point x="512.0" y="1574.0" type="qcurve" smooth="yes"/>
      <point x="436.0" y="1574.0"/>
      <point x="347.0" y="1504.0"/>
    </contour>
  </outline>
</glyph>
<glyph name="dblgravecomb" format="2">
  <advance width="1024"/>
  <unicode hex="0311"/>
  <outline>
    <contour>
      <point x="-166.0" y="1498.0" type="qcurve"/>
      <point x="-166.0" y="1526.0"/>
      <point x="-91.0" y="1609.0"/>
      <point x="-25.0" y="1609.0" type="qcurve" smooth="yes"/>
      <point x="9.0" y="1609.0"/>
      <point x="140.0" y="1534.0"/>
      <point x="181.0" y="1497.0" type="qcurve" smooth="yes"/>
      <point x="431.0" y="1288.0" type="line"/>
      <point x="357.0" y="1197.0" type="line"/>
      <point x="-60.0" y="1381.0" type="line" smooth="yes"/>
      <point x="-122.0" y="1408.0"/>
      <point x="-166.0" y="1451.0"/>
    </contour>
    <contour>
      <point x="310.0" y="1498.0" type="qcurve"/>
      <point x="310.0" y="1526.0"/>
      <point x="385.0" y="1609.0"/>
      <point x="452.0" y="1609.0" type="qcurve" smooth="yes"/>
      <point x="485.0" y="1609.0"/>
      <point x="606.0" y="1536.0"/>
      <point x="649.0" y="1499.0" type="qcurve" smooth="yes"/>
      <point x="908.0" y="1288.0" type="line"/>
      <point x="827.0" y="1197.0" type="line"/>
      <point x="416.0" y="1381.0" type="line" smooth="yes"/>
      <point x="355.0" y="1409.0"/>
      <point x="310.0" y="1451.0"/>
    </contour>
  </outline>
</glyph>
<glyph name="dieresisbelowcomb" format="2">
  <advance width="1024"/>
  <unicode hex="0324"/>
  <outline>
    <contour>
      <point x="111.0" y="-248.0" type="qcurve" smooth="yes"/>
      <point x="111.0" y="-168.0"/>
      <point x="196.0" y="-83.0"/>
      <point x="278.0" y="-83.0" type="qcurve" smooth="yes"/>
      <point x="355.0" y="-83.0"/>
      <point x="445.0" y="-175.0"/>
      <point x="445.0" y="-248.0" type="qcurve" smooth="yes"/>
      <point x="445.0" y="-328.0"/>
      <point x="360.0" y="-413.0"/>
      <point x="278.0" y="-413.0" type="qcurve" smooth="yes"/>
      <point x="201.0" y="-413.0"/>
      <point x="111.0" y="-324.0"/>
    </contour>
    <contour>
      <point x="579.0" y="-248.0" type="qcurve" smooth="yes"/>
      <point x="579.0" y="-168.0"/>
      <point x="665.0" y="-83.0"/>
      <point x="746.0" y="-83.0" type="qcurve" smooth="yes"/>
      <point x="823.0" y="-83.0"/>
      <point x="913.0" y="-175.0"/>
      <point x="913.0" y="-248.0" type="qcurve" smooth="yes"/>
      <point x="913.0" y="-328.0"/>
      <point x="829.0" y="-413.0"/>
      <point x="746.0" y="-413.0" type="qcurve" smooth="yes"/>
      <point x="669.0" y="-413.0"/>
      <point x="579.0" y="-324.0"/>
    </contour>
  </outline>
</glyph>
<glyph name="brevebelowcomb" format="2">
  <advance width="1024"/>
  <unicode hex="032E"/>
  <outline>
    <contour>
      <point x="804.0" y="-121.0" type="qcurve"/>
      <point x="940.0" y="-131.0" type="line"/>
      <point x="953.0" y="-238.0"/>
      <point x="707.0" y="-473.0"/>
      <point x="521.0" y="-473.0" type="qcurve" smooth="yes"/>
      <point x="293.0" y="-473.0"/>
      <point x="68.0" y="-275.0"/>
      <point x="82.0" y="-142.0" type="qcurve"/>
      <point x="214.0" y="-118.0" type="line"/>
      <point x="245.0" y="-183.0"/>
      <point x="379.0" y="-285.0"/>
      <point x="516.0" y="-285.0" type="qcurve" smooth="yes"/>
      <point x="643.0" y="-285.0"/>
      <point x="783.0" y="-176.0"/>
    </contour>
  </outline>
</glyph>
<glyph name="quotesinglbase" format="2">
  <advance width="673"/>
  <unicode hex="201A"/>
  <outline>
    <contour>
      <point x="73.0" y="-226.0" type="line"/>
      <point x="142.0" y="-190.0"/>
      <point x="288.0" y="-75.0"/>
      <point x="334.0" y="23.0" type="qcurve"/>
      <point x="193.0" y="34.0"/>
      <point x="83.0" y="162.0"/>
      <point x="83.0" y="252.0" type="qcurve" smooth="yes"/>
      <point x="83.0" y="343.0"/>
      <point x="235.0" y="495.0"/>
      <point x="347.0" y="495.0" type="qcurve" smooth="yes"/>
      <point x="461.0" y="495.0"/>
      <point x="601.0" y="377.0"/>
      <point x="601.0" y="239.0" type="qcurve" smooth="yes"/>
      <point x="601.0" y="90.0"/>
      <point x="302.0" y="-264.0"/>
      <point x="161.0" y="-327.0" type="qcurve"/>
    </contour>
  </outline>
</glyph>
<glyph name="quotedblright" format="2">
  <advance width="1293"/>
  <unicode hex="201D"/>
  <outline>
    <contour>
      <point x="75.0" y="808.0" type="line"/>
      <point x="144.0" y="844.0"/>
      <point x="290.0" y="959.0"/>
      <point x="336.0" y="1057.0" type="qcurve"/>
      <point x="195.0" y="1068.0"/>
      <point x="85.0" y="1196.0"/>
      <point x="85.0" y="1286.0" type="qcurve" smooth="yes"/>
      <point x="85.0" y="1377.0"/>
      <point x="237.0" y="1529.0"/>
      <point x="349.0" y="1529.0" type="qcurve" smooth="yes"/>
      <point x="463.0" y="1529.0"/>
      <point x="603.0" y="1411.0"/>
      <point x="603.0" y="1273.0" type="qcurve" smooth="yes"/>
      <point x="603.0" y="1124.0"/>
      <point x="304.0" y="770.0"/>
      <point x="163.0" y="707.0" type="qcurve"/>
    </contour>
    <contour>
      <point x="695.0" y="808.0" type="line"/>
      <point x="764.0" y="844.0"/>
      <point x="910.0" y="959.0"/>
      <point x="956.0" y="1057.0" type="qcurve"/>
      <point x="815.0" y="1068.0"/>
      <point x="705.0" y="1196.0"/>
      <point x="705.0" y="1286.0" type="qcurve" smooth="yes"/>
      <point x="705.0" y="1377.0"/>
      <point x="857.0" y="1529.0"/>
      <point x="969.0" y="1529.0" type="qcurve" smooth="yes"/>
      <point x="1083.0" y="1529.0"/>
      <point x="1223.0" y="1411.0"/>
      <point x="1223.0" y="1273.0" type="qcurve" smooth="yes"/>
      <point x="1223.0" y="1124.0"/>
      <point x="924.0" y="770.0"/>
      <point x="783.0" y="707.0" type="qcurve"/>
    </contour>
  </outline>
</glyph>
<glyph name="minute" format="2">
  <advance width="654"/>
  <unicode hex="2032"/>
  <outline>
    <contour>
      <point x="94.0" y="934.0" type="line"/>
      <point x="291.0" y="1436.0" type="line" smooth="yes"/>
      <point x="327.0" y="1525.0"/>
      <point x="490.0" y="1592.0"/>
      <point x="572.0" y="1557.0" type="qcurve" smooth="yes"/>
      <point x="646.0" y="1524.0"/>
      <point x="644.0" y="1320.0"/>
      <point x="573.0" y="1252.0" type="qcurve" smooth="yes"/>
      <point x="248.0" y="934.0" type="line"/>
    </contour>
  </outline>
</glyph>
<glyph name="guilsinglleft" format="2">
  <advance width="1090"/>
  <unicode hex="2039"/>
  <outline>
    <contour>
      <point x="45.0" y="651.0" type="line"/>
      <point x="45.0" y="651.0"/>
      <point x="646.0" y="1060.0"/>
      <point x="728.0" y="1104.0" type="qcurve" smooth="yes"/>
      <point x="836.0" y="1166.0"/>
      <point x="924.0" y="939.0"/>
      <point x="824.0" y="872.0" type="qcurve" smooth="yes"/>
      <point x="701.0" y="791.0"/>
      <point x="433.0" y="601.0"/>
      <point x="433.0" y="601.0" type="qcurve"/>
      <point x="433.0" y="601.0"/>
      <point x="739.0" y="409.0"/>
      <point x="835.0" y="340.0" type="qcurve" smooth="yes"/>
      <point x="932.0" y="270.0"/>
      <point x="823.0" y="70.0"/>
      <point x="727.0" y="124.0" type="qcurve" smooth="yes"/>
      <point x="663.0" y="162.0"/>
      <point x="120.0" y="520.0"/>
      <point x="46.0" y="570.0" type="qcurve"/>
    </contour>
  </outline>
</glyph>
<glyph name="colonsign" format="2">
  <advance width="1890"/>
  <unicode hex="20A1"/>
  <outline>
    <contour>
      <point x="-13.0" y="712.0" type="qcurve" smooth="yes"/>
      <point x="-13.0" y="1135.0"/>
      <point x="519.0" y="1483.0"/>
      <point x="983.0" y="1483.0" type="qcurve" smooth="yes"/>
      <point x="1336.0" y="1483.0"/>
      <point x="1783.0" y="1197.0"/>
      <point x="1791.0" y="892.0" type="qcurve"/>
      <point x="1525.0" y="892.0" type="line"/>
      <point x="1505.0" y="1077.0"/>
      <point x="1270.0" y="1253.0"/>
      <point x="1056.0" y="1253.0" type="qcurve" smooth="yes"/>
      <point x="761.0" y="1253.0"/>
      <point x="467.0" y="1010.0"/>
      <point x="468.0" y="733.0" type="qcurve" smooth="yes"/>
      <point x="468.0" y="442.0"/>
      <point x="794.0" y="175.0"/>
      <point x="1082.0" y="175.0" type="qcurve" smooth="yes"/>
      <point x="1241.0" y="175.0"/>
      <point x="1483.0" y="332.0"/>
      <point x="1595.0" y="435.0" type="qcurve"/>
      <point x="1731.0" y="267.0" type="line"/>
      <point x="1560.0" y="96.0"/>
      <point x="1226.0" y="-20.0"/>
      <point x="950.0" y="-20.0" type="qcurve" smooth="yes"/>
      <point x="508.0" y="-20.0"/>
      <point x="-13.0" y="326.0"/>
    </contour>
    <contour>
      <point x="835.0" y="-104.0" type="line"/>
      <point x="916.0" y="125.0" type="line"/>
      <point x="942.0" y="120.0" type="line"/>
      <point x="1206.0" y="901.0" type="line"/>
      <point x="1362.0" y="844.0" type="line"/>
      <point x="1119.0" y="93.0" type="line"/>
      <point x="1158.0" y="90.0" type="line"/>
      <point x="1090.0" y="-114.0" type="line"/>
    </contour>
    <contour>
      <point x="1387.0" y="1580.0" type="line"/>
      <point x="1645.0" y="1580.0" type="line"/>
      <point x="1557.0" y="1298.0" type="line"/>
      <point x="1505.0" y="1302.0" type="line"/>
      <point x="1362.0" y="844.0" type="line"/>
      <point x="1206.0" y="901.0" type="line"/>
      <point x="1344.0" y="1354.0" type="line"/>
      <point x="1315.0" y="1359.0" type="line"/>
    </contour>
    <contour>
      <point x="499.0" y="-156.0" type="line"/>
      <point x="548.0" y="8.0" type="line"/>
      <point x="574.0" y="3.0" type="line"/>
      <point x="871.0" y="910.0" type="line"/>
      <point x="1027.0" y="844.0" type="line"/>
      <point x="750.0" y="-63.0" type="line"/>
      <point x="779.0" y="-66.0" type="line"/>
      <point x="754.0" y="-166.0" type="line"/>
    </contour>
    <contour>
      <point x="1055.0" y="1598.0" type="line"/>
      <point x="1313.0" y="1598.0" type="line"/>
      <point x="1228.0" y="1357.0" type="line"/>
      <point x="1196.0" y="1361.0" type="line"/>
      <point x="1027.0" y="844.0" type="line"/>
      <point x="871.0" y="910.0" type="line"/>
      <point x="1029.0" y="1396.0" type="line"/>
      <point x="1000.0" y="1401.0" type="line"/>
    </contour>
  </outline>
</glyph>
<glyph name="minus" format="2">
  <advance width="1297"/>
  <unicode hex="2212"/>
  <outline>
    <contour>
      <point x="70.0" y="476.0" type="line"/>
      <point x="70.0" y="788.0" type="line"/>
      <point x="1228.0" y="788.0" type="line"/>
      <point x="1228.0" y="476.0" type="line"/>
    </contour>
  </outline>
</glyph>
<glyph name="divisionslash" format="2">
  <advance width="1124"/>
  <unicode hex="2215"/>
  <outline>
    <contour>
      <point x="-31.0" y="-73.0" type="line"/>
      <point x="811.0" y="1605.0" type="line"/>
      <point x="1136.0" y="1463.0" type="line"/>
      <point x="295.0" y="-213.0" type="line"/>
    </contour>
  </outline>
</glyph>
<glyph name="notequal" format="2">
  <advance width="1297"/>
  <unicode hex="2260"/>
  <outline>
    <contour>
      <point x="133.0" y="265.0" type="line"/>
      <point x="133.0" y="543.0" type="line"/>
      <point x="647.0" y="539.0" type="line"/>
      <point x="1163.0" y="543.0" type="line"/>
      <point x="1163.0" y="265.0" type="line"/>
      <point x="647.0" y="269.0" type="line"/>
    </contour>
    <contour>
      <point x="133.0" y="709.0" type="line"/>
      <point x="133.0" y="987.0" type="line"/>
      <point x="647.0" y="983.0" type="line"/>
      <point x="1163.0" y="987.0" type="line"/>
      <point x="1163.0" y="709.0" type="line"/>
      <point x="647.0" y="713.0" type="line"/>
    </contour>
    <contour>
      <point x="245.0" y="83.0" type="line"/>
      <point x="834.0" y="1218.0" type="line"/>
      <point x="1054.0" y="1126.0" type="line"/>
      <point x="465.0" y="-9.0" type="line"/>
    </contour>
  </outline>
</glyph>
<glyph name="greaterequal" format="2">
  <advance width="1297"/>
  <unicode hex="2265"/>
  <outline>
    <contour>
      <point x="70.0" y="-85.0" type="line"/>
      <point x="70.0" y="180.0" type="line"/>
      <point x="1318.0" y="180.0" type="line"/>
      <point x="1318.0" y="-85.0" type="line"/>
    </contour>
    <contour>
      <point x="1323.0" y="752.0" type="qcurve"/>
      <point x="1319.0" y="744.0"/>
      <point x="496.0" y="323.0"/>
      <point x="397.0" y="262.0" type="qcurve" smooth="yes"/>
      <point x="317.0" y="213.0"/>
      <point x="183.0" y="410.0"/>
      <point x="279.0" y="477.0" type="qcurve" smooth="yes"/>
      <point x="427.0" y="568.0"/>
      <point x="747.0" y="761.0"/>
      <point x="709.0" y="755.0" type="qcurve"/>
      <point x="725.0" y="758.0"/>
      <point x="460.0" y="962.0"/>
      <point x="295.0" y="1070.0" type="qcurve"/>
      <point x="202.0" y="1139.0"/>
      <point x="333.0" y="1349.0"/>
      <point x="433.0" y="1278.0" type="qcurve" smooth="yes"/>
      <point x="529.0" y="1213.0"/>
      <point x="1316.0" y="760.0"/>
    </contour>
  </outline>
</glyph>
<glyph name="rightanglebracket" format="2">
  <advance width="1155"/>
  <unicode hex="27E9"/>
  <outline>
    <contour>
      <point x="220.0" y="-155.0" type="line"/>
      <point x="21.0" y="174.0" type="line"/>
      <point x="625.0" y="771.0" type="line"/>
      <point x="27.0" y="1208.0" type="line"/>
      <point x="206.0" y="1508.0" type="line"/>
      <point x="1108.0" y="867.0" type="line"/>
      <point x="1108.0" y="650.0" type="line"/>
    </contour>
  </outline>
</glyph>
<glyph name="f_f_i" format="2">
  <advance width="3489"/>
  <unicode hex="FB03"/>
  <outline>
    <contour>
      <point x="139.0" y="0.0" type="line"/>
      <point x="139.0" y="181.0" type="line"/>
      <point x="310.0" y="216.0" type="line"/>
      <point x="325.0" y="577.0" type="line"/>
      <point x="328.0" y="865.0" type="line"/>
      <point x="109.0" y="869.0" type="line"/>
      <point x="114.0" y="1028.0" type="line"/>
      <point x="328.0" y="1074.0" type="line"/>
      <point x="320.0" y="1178.0" type="line" smooth="yes"/>
      <point x="314.0" y="1329.0"/>
      <point x="537.0" y="1527.0"/>
      <point x="793.0" y="1527.0" type="qcurve" smooth="yes"/>
      <point x="927.0" y="1527.0"/>
      <point x="1134.0" y="1484.0"/>
      <point x="1222.0" y="1444.0" type="qcurve" smooth="yes"/>
      <point x="1252.0" y="1425.0" type="line"/>
      <point x="1228.0" y="1221.0" type="line"/>
      <point x="1214.0" y="1229.0" type="line" smooth="yes"/>
      <point x="1149.0" y="1254.0"/>
      <point x="1032.0" y="1278.0"/>
      <point x="978.0" y="1278.0" type="qcurve" smooth="yes"/>
      <point x="916.0" y="1278.0"/>
      <point x="862.0" y="1212.0"/>
      <point x="862.0" y="1232.0" type="qcurve" smooth="yes"/>
      <point x="864.0" y="1057.0" type="line"/>
      <point x="1556.0" y="1065.0" type="line"/>
      <point x="1550.0" y="1098.0" type="line" smooth="yes"/>
      <point x="1545.0" y="1252.0"/>
      <point x="1711.0" y="1507.0"/>
      <point x="1963.0" y="1508.0" type="qcurve" smooth="yes"/>
      <point x="2044.0" y="1511.0"/>
      <point x="2215.0" y="1493.0"/>
      <point x="2278.0" y="1476.0" type="qcurve" smooth="yes"/>
      <point x="2316.0" y="1464.0" type="line"/>
      <point x="2292.0" y="1245.0" type="line"/>
      <point x="2280.0" y="1247.0" type="line" smooth="yes"/>
      <point x="2247.0" y="1258.0"/>
      <point x="2231.0" y="1249.0"/>
      <point x="2225.0" y="1248.0" type="qcurve" smooth="yes"/>
      <point x="2127.0" y="1249.0"/>
      <point x="2089.0" y="1151.0"/>
      <point x="2090.0" y="1167.0" type="qcurve" smooth="yes"/>
      <point x="2092.0" y="1064.0" type="line"/>
      <point x="3144.0" y="1092.0" type="line"/>
      <point x="3222.0" y="1092.0" type="line"/>
      <point x="3265.0" y="1043.0" type="line"/>
      <point x="3258.0" y="578.0" type="line"/>
      <point x="3260.0" y="216.0" type="line"/>
      <point x="3428.0" y="181.0" type="line"/>
      <point x="3428.0" y="0.0" type="line"/>
      <point x="2560.0" y="0.0" type="line"/>
      <point x="2560.0" y="181.0" type="line"/>
      <point x="2728.0" y="216.0" type="line"/>
      <point x="2730.0" y="578.0" type="line"/>
      <point x="2728.0" y="823.0" type="line"/>
      <point x="2696.0" y="859.0" type="line"/>
      <point x="2090.0" y="867.0" type="line"/>
      <point x="2087.0" y="577.0" type="line"/>
      <point x="2076.0" y="216.0" type="line"/>
      <point x="2274.0" y="181.0" type="line"/>
      <point x="2274.0" y="0.0" type="line"/>
      <point x="1349.0" y="0.0" type="line"/>
      <point x="1349.0" y="181.0" type="line"/>
      <point x="1538.0" y="216.0" type="line"/>
      <point x="1553.0" y="577.0" type="line"/>
      <point x="1557.0" y="889.0" type="line"/>
      <point x="862.0" y="863.0" type="line"/>
      <point x="859.0" y="577.0" type="line"/>
      <point x="848.0" y="216.0" type="line"/>
      <point x="1065.0" y="181.0" type="line"/>
      <point x="1065.0" y="0.0" type="line"/>
    </contour>
    <contour>
      <point x="2645.0" y="1350.0" type="qcurve" smooth="yes"/>
      <point x="2645.0" y="1437.0"/>
      <point x="2804.0" y="1552.0"/>
      <point x="2951.0" y="1551.0" type="qcurve" smooth="yes"/>
      <point x="3091.0" y="1552.0"/>
      <point x="3262.0" y="1441.0"/>
      <point x="3261.0" y="1350.0" type="qcurve" smooth="yes"/>
      <point x="3261.0" y="1271.0"/>
      <point x="3102.0" y="1166.0"/>
      <point x="2953.0" y="1165.0" type="qcurve" smooth="yes"/>
      <point x="2813.0" y="1166.0"/>
      <point x="2645.0" y="1275.0"/>
    </contour>
  </outline>
</glyph>
<glyph name="acutecombstack.case" format="2">
  <advance width="1024"/>
  <outline>
    <contour>
      <point x="1020.0" y="1770.0" type="qcurve" smooth="yes"/>
      <point x="1009.0" y="1717.0"/>
      <point x="868.0" y="1648.0"/>
      <point x="770.0" y="1635.0" type="qcurve" smooth="yes"/>
      <point x="202.0" y="1619.0" type="line"/>
      <point x="188.0" y="1784.0" type="line"/>
      <point x="685.0" y="1971.0" type="line" smooth="yes"/>
      <point x="772.0" y="1992.0"/>
      <point x="891.0" y="1969.0"/>
      <point x="903.0" y="1950.0" type="qcurve" smooth="yes"/>
      <point x="983.0" y="1932.0"/>
      <point x="1033.0" y="1799.0"/>
    </contour>
  </outline>
</glyph>
<glyph name="brevebelowcomb.case" format="2">
  <advance width="1024"/>
  <outline>
    <contour>
      <point x="806.0" y="-205.0" type="qcurve"/>
      <point x="942.0" y="-215.0" type="line"/>
      <point x="955.0" y="-322.0"/>
      <point x="707.0" y="-559.0"/>
      <point x="521.0" y="-559.0" type="qcurve" smooth="yes"/>
      <point x="295.0" y="-559.0"/>
      <point x="70.0" y="-359.0"/>
      <point x="84.0" y="-226.0" type="qcurve"/>
      <point x="216.0" y="-202.0" type="line"/>
      <point x="247.0" y="-267.0"/>
      <point x="381.0" y="-371.0"/>
      <point x="518.0" y="-371.0" type="qcurve" smooth="yes"/>
      <point x="645.0" y="-371.0"/>
      <point x="785.0" y="-260.0"/>
    </contour>
  </outline>
</glyph>
<glyph name="brevecombstack.case" format="2">
  <advance width="1024"/>
  <outline>
    <contour>
      <point x="779.0" y="1974.0" type="qcurve"/>
      <point x="926.0" y="1962.0" type="line"/>
      <point x="913.0" y="1829.0"/>
      <point x="696.0" y="1649.0"/>
      <point x="513.0" y="1649.0" type="qcurve" smooth="yes"/>
      <point x="313.0" y="1649.0"/>
      <point x="101.0" y="1818.0"/>
      <point x="97.0" y="1958.0" type="qcurve"/>
      <point x="242.0" y="1975.0" type="line"/>
      <point x="267.0" y="1901.0"/>
      <point x="396.0" y="1844.0"/>
      <point x="513.0" y="1844.0" type="qcurve" smooth="yes"/>
      <point x="629.0" y="1844.0"/>
      <point x="758.0" y="1907.0"/>
    </contour>
  </outline>
</glyph>
<glyph name="caroncomb.alt" format="2">
  <advance width="1024"/>
  <outline>
    <contour>
      <point x="355.0" y="1127.0" type="line"/>
      <point x="434.0" y="1508.0" type="line" smooth="yes"/>
      <point x="451.0" y="1586.0"/>
      <point x="539.0" y="1670.0"/>
      <point x="621.0" y="1670.0" type="qcurve" smooth="yes"/>
      <point x="689.0" y="1670.0"/>
      <point x="782.0" y="1595.0"/>
      <point x="782.0" y="1551.0" type="qcurve" smooth="yes"/>
      <point x="782.0" y="1516.0"/>
      <point x="754.0" y="1444.0"/>
      <point x="722.0" y="1401.0" type="qcurve" smooth="yes"/>
      <point x="498.0" y="1083.0" type="line"/>
    </contour>
  </outline>
</glyph>
<glyph name="caroncomb.case" format="2">
  <advance width="1024"/>
  <outline>
    <contour>
      <point x="512.0" y="1614.0" type="qcurve" smooth="yes"/>
      <point x="458.0" y="1614.0"/>
      <point x="341.0" y="1665.0"/>
      <point x="273.0" y="1730.0" type="qcurve" smooth="yes"/>
      <point x="41.0" y="1990.0" type="line"/>
      <point x="176.0" y="2084.0" type="line"/>
      <point x="512.0" y="1834.0" type="line"/>
      <point x="860.0" y="2098.0" type="line"/>
      <point x="983.0" y="1990.0" type="line"/>
      <point x="751.0" y="1730.0" type="line" smooth="yes"/>
      <point x="692.0" y="1665.0"/>
      <point x="565.0" y="1614.0"/>
    </contour>
  </outline>
</glyph>
<glyph name="circumflexcomb.case" format="2">
  <advance width="1024"/>
  <outline>
    <contour>
      <point x="513.0" y="2044.0" type="qcurve" smooth="yes"/>
      <point x="566.0" y="2044.0"/>
      <point x="685.0" y="1992.0"/>
      <point x="752.0" y="1928.0" type="qcurve" smooth="yes"/>
      <point x="984.0" y="1668.0" type="line"/>
      <point x="843.0" y="1574.0" type="line"/>
      <point x="513.0" y="1822.0" type="line"/>
      <point x="171.0" y="1560.0" type="line"/>
      <point x="42.0" y="1668.0" type="line"/>
      <point x="274.0" y="1928.0" type="line" smooth="yes"/>
      <point x="334.0" y="1994.0"/>
      <point x="459.0" y="2044.0"/>
    </contour>
  </outline>
</glyph>
<glyph name="dblgravecomb.case" format="2">
  <advance width="1024"/>
  <outline>
    <contour>
      <point x="-188.0" y="1955.0" type="qcurve" smooth="yes"/>
      <point x="-188.0" y="1993.0"/>
      <point x="-123.0" y="2083.0"/>
      <point x="-53.0" y="2083.0" type="qcurve" smooth="yes"/>
      <point x="-9.0" y="2083.0"/>
      <point x="130.0" y="2017.0"/>
      <point x="175.0" y="1968.0" type="qcurve" smooth="yes"/>
      <point x="433.0" y="1712.0" type="line"/>
      <point x="333.0" y="1615.0" type="line"/>
      <point x="-58.0" y="1794.0" type="line" smooth="yes"/>
      <point x="-110.0" y="1816.0"/>
      <point x="-188.0" y="1926.0"/>
    </contour>
    <contour>
      <point x="302.0" y="1955.0" type="qcurve" smooth="yes"/>
      <point x="302.0" y="1993.0"/>
      <point x="369.0" y="2083.0"/>
      <point x="440.0" y="2083.0" type="qcurve" smooth="yes"/>
      <point x="483.0" y="2083.0"/>
      <point x="610.0" y="2017.0"/>
      <point x="657.0" y="1968.0" type="qcurve" smooth="yes"/>
      <point x="924.0" y="1712.0" type="line"/>
      <point x="817.0" y="1615.0" type="line"/>
      <point x="432.0" y="1794.0" type="line" smooth="yes"/>
      <point x="381.0" y="1817.0"/>
      <point x="302.0" y="1926.0"/>
    </contour>
  </outline>
</glyph>
<glyph name="dieresiscombstack.case" format="2">
  <advance width="1024"/>
  <outline>
    <contour>
      <point x="73.0" y="1765.0" type="qcurve" smooth="yes"/>
      <point x="73.0" y="1848.0"/>
      <point x="163.0" y="1938.0"/>
      <point x="249.0" y="1938.0" type="qcurve" smooth="yes"/>
      <point x="330.0" y="1938.0"/>
      <point x="425.0" y="1841.0"/>
      <point x="425.0" y="1765.0" type="qcurve" smooth="yes"/>
      <point x="425.0" y="1680.0"/>
      <point x="336.0" y="1591.0"/>
      <point x="249.0" y="1591.0" type="qcurve" smooth="yes"/>
      <point x="168.0" y="1591.0"/>
      <point x="73.0" y="1685.0"/>
    </contour>
    <contour>
      <point x="600.0" y="1765.0" type="qcurve" smooth="yes"/>
      <point x="600.0" y="1848.0"/>
      <point x="691.0" y="1938.0"/>
      <point x="776.0" y="1938.0" type="qcurve" smooth="yes"/>
      <point x="857.0" y="1938.0"/>
      <point x="952.0" y="1841.0"/>
      <point x="952.0" y="1765.0" type="qcurve" smooth="yes"/>
      <point x="952.0" y="1680.0"/>
      <point x="864.0" y="1591.0"/>
      <point x="776.0" y="1591.0" type="qcurve" smooth="yes"/>
      <point x="695.0" y="1591.0"/>
      <point x="600.0" y="1685.0"/>
    </contour>
  </outline>
</glyph>
<glyph name="dotaccentcombstack.case" format="2">
  <advance width="1024"/>
  <outline>
    <contour>
      <point x="330.0" y="1773.0" type="qcurve" smooth="yes"/>
      <point x="330.0" y="1857.0"/>
      <point x="425.0" y="1955.0"/>
      <point x="513.0" y="1955.0" type="qcurve" smooth="yes"/>
      <point x="598.0" y="1955.0"/>
      <point x="696.0" y="1852.0"/>
      <point x="696.0" y="1773.0" type="qcurve" smooth="yes"/>
      <point x="696.0" y="1691.0"/>
      <point x="605.0" y="1595.0"/>
      <point x="513.0" y="1595.0" type="qcurve" smooth="yes"/>
      <point x="429.0" y="1595.0"/>
      <point x="330.0" y="1694.0"/>
    </contour>
  </outline>
</glyph>
<glyph name="eight.lf" format="2">
  <advance width="1913"/>
  <outline>
    <contour>
      <point x="127.0" y="351.0" type="qcurve" smooth="yes"/>
      <point x="127.0" y="511.0"/>
      <point x="480.0" y="747.0"/>
      <point x="789.0" y="827.0" type="qcurve"/>
      <point x="948.0" y="753.0" type="line"/>
      <point x="834.0" y="667.0"/>
      <point x="669.0" y="459.0"/>
      <point x="669.0" y="336.0" type="qcurve" smooth="yes"/>
      <point x="669.0" y="236.0"/>
      <point x="801.0" y="168.0"/>
      <point x="934.0" y="168.0" type="qcurve" smooth="yes"/>
      <point x="1094.0" y="168.0"/>
      <point x="1232.0" y="260.0"/>
      <point x="1232.0" y="346.0" type="qcurve" smooth="yes"/>
      <point x="1232.0" y="434.0"/>
      <point x="1040.0" y="580.0"/>
      <point x="797.0" y="649.0" type="qcurve" smooth="yes"/>
      <point x="489.0" y="738.0"/>
      <point x="261.0" y="963.0"/>
      <point x="265.0" y="1137.0" type="qcurve" smooth="yes"/>
      <point x="269.0" y="1308.0"/>
      <point x="571.0" y="1505.0"/>
      <point x="931.0" y="1505.0" type="qcurve" smooth="yes"/>
      <point x="1288.0" y="1505.0"/>
      <point x="1625.0" y="1345.0"/>
      <point x="1625.0" y="1189.0" type="qcurve" smooth="yes"/>
      <point x="1625.0" y="1056.0"/>
      <point x="1344.0" y="846.0"/>
      <point x="1092.0" y="783.0" type="qcurve"/>
      <point x="908.0" y="855.0" type="line"/>
      <point x="1057.0" y="923.0"/>
      <point x="1173.0" y="1098.0"/>
      <point x="1173.0" y="1189.0" type="qcurve" smooth="yes"/>
      <point x="1173.0" y="1260.0"/>
      <point x="1045.0" y="1293.0"/>
      <point x="920.0" y="1293.0" type="qcurve" smooth="yes"/>
      <point x="793.0" y="1293.0"/>
      <point x="725.0" y="1273.0"/>
      <point x="725.0" y="1207.0" type="qcurve" smooth="yes"/>
      <point x="725.0" y="1125.0"/>
      <point x="885.0" y="1002.0"/>
      <point x="1162.0" y="925.0" type="qcurve" smooth="yes"/>
      <point x="1445.0" y="847.0"/>
      <point x="1766.0" y="607.0"/>
      <point x="1766.0" y="414.0" type="qcurve" smooth="yes"/>
      <point x="1766.0" y="223.0"/>
      <point x="1370.0" y="-30.0"/>
      <point x="937.0" y="-30.0" type="qcurve" smooth="yes"/>
      <point x="528.0" y="-30.0"/>
      <point x="127.0" y="174.0"/>
    </contour>
  </outline>
</glyph>
<glyph name="five.lf" format="2">
  <advance width="1644"/>
  <outline>
    <contour>
      <point x="6.0" y="79.0" type="qcurve"/>
      <point x="86.0" y="279.0" type="line"/>
      <point x="193.0" y="217.0"/>
      <point x="436.0" y="193.0"/>
      <point x="579.0" y="193.0" type="qcurve" smooth="yes"/>
      <point x="774.0" y="193.0"/>
      <point x="957.0" y="362.0"/>
      <point x="957.0" y="511.0" type="qcurve" smooth="yes"/>
      <point x="957.0" y="633.0"/>
      <point x="756.0" y="742.0"/>
      <point x="454.0" y="726.0" type="qcurve" smooth="yes"/>
      <point x="337.0" y="722.0" type="line"/>
      <point x="244.0" y="820.0" type="line"/>
      <point x="296.0" y="1467.0" type="line"/>
      <point x="333.0" y="1500.0" type="line"/>
      <point x="1445.0" y="1500.0" type="line"/>
      <point x="1422.0" y="1161.0" type="line"/>
      <point x="499.0" y="1161.0" type="line"/>
      <point x="480.0" y="1143.0" type="line"/>
      <point x="496.0" y="892.0" type="line"/>
      <point x="680.0" y="896.0" type="line"/>
      <point x="1215.0" y="917.0"/>
      <point x="1516.0" y="613.0"/>
      <point x="1516.0" y="430.0" type="qcurve" smooth="yes"/>
      <point x="1516.0" y="197.0"/>
      <point x="1132.0" y="-30.0"/>
      <point x="724.0" y="-30.0" type="qcurve" smooth="yes"/>
      <point x="461.0" y="-30.0"/>
      <point x="92.0" y="31.0"/>
    </contour>
  </outline>
</glyph>
<glyph name="four.tab" format="2">
  <advance width="1923"/>
  <outline>
    <contour>
      <point x="148.0" y="536.0" type="line"/>
      <point x="1050.0" y="1450.0" type="line"/>
      <point x="1433.0" y="1452.0" type="line"/>
      <point x="1519.0" y="1437.0" type="line"/>
      <point x="1500.0" y="523.0" type="line"/>
      <point x="1512.0" y="209.0" type="line"/>
      <point x="1793.0" y="174.0" type="line"/>
      <point x="1793.0" y="0.0" type="line"/>
      <point x="594.0" y="0.0" type="line"/>
      <point x="594.0" y="174.0" type="line"/>
      <point x="996.0" y="209.0" type="line"/>
      <point x="996.0" y="521.0" type="line"/>
      <point x="990.0" y="1098.0" type="line"/>
      <point x="428.0" y="607.0" type="line"/>
      <point x="430.0" y="588.0" type="line"/>
      <point x="1805.0" y="620.0" type="line"/>
      <point x="1805.0" y="422.0" type="line"/>
      <point x="176.0" y="371.0" type="line"/>
    </contour>
  </outline>
</glyph>
<glyph name="hookabovecomb.case" format="2">
  <advance width="1024"/>
  <outline>
    <contour>
      <point x="379.0" y="1506.0" type="line"/>
      <point x="379.0" y="1761.0" type="line"/>
      <point x="511.0" y="1869.0" type="line"/>
      <point x="543.0" y="1862.0"/>
      <point x="618.0" y="1854.0"/>
      <point x="648.0" y="1854.0" type="qcurve" smooth="yes"/>
      <point x="716.0" y="1854.0"/>
      <point x="817.0" y="1914.0"/>
      <point x="817.0" y="1967.0" type="qcurve" smooth="yes"/>
      <point x="817.0" y="2018.0"/>
      <point x="703.0" y="2044.0"/>
      <point x="595.0" y="2044.0" type="qcurve" smooth="yes"/>
      <point x="523.0" y="2044.0"/>
      <point x="347.0" y="1997.0"/>
      <point x="275.0" y="1969.0" type="qcurve"/>
      <point x="209.0" y="2144.0" type="line"/>
      <point x="282.0" y="2199.0"/>
      <point x="517.0" y="2259.0"/>
      <point x="605.0" y="2259.0" type="qcurve" smooth="yes"/>
      <point x="840.0" y="2259.0"/>
      <point x="1103.0" y="2109.0"/>
      <point x="1103.0" y="1959.0" type="qcurve" smooth="yes"/>
      <point x="1103.0" y="1837.0"/>
      <point x="891.0" y="1682.0"/>
      <point x="735.0" y="1682.0" type="qcurve" smooth="yes"/>
      <point x="671.0" y="1682.0"/>
      <point x="636.0" y="1678.0"/>
      <point x="613.0" y="1682.0" type="qcurve"/>
      <point x="613.0" y="1506.0" type="line"/>
    </contour>
  </outline>
</glyph>
<glyph name="horncomb.case" format="2">
  <advance width="1024"/>
  <outline>
    <contour>
      <point x="-97.0" y="1534.0" type="line"/>
      <point x="-32.0" y="1505.0"/>
      <point x="185.0" y="1472.0"/>
      <point x="225.0" y="1472.0" type="qcurve" smooth="yes"/>
      <point x="298.0" y="1472.0"/>
      <point x="329.0" y="1530.0"/>
      <point x="329.0" y="1531.0" type="qcurve" smooth="yes"/>
      <point x="329.0" y="1618.0"/>
      <point x="324.0" y="1642.0"/>
      <point x="301.0" y="1752.0" type="qcurve"/>
      <point x="444.0" y="1752.0" type="line"/>
      <point x="488.0" y="1660.0"/>
      <point x="507.0" y="1640.0"/>
      <point x="507.0" y="1578.0" type="qcurve" smooth="yes"/>
      <point x="507.0" y="1481.0"/>
      <point x="365.0" y="1339.0"/>
      <point x="207.0" y="1339.0" type="qcurve" smooth="yes"/>
      <point x="159.0" y="1339.0"/>
      <point x="14.0" y="1382.0"/>
      <point x="-97.0" y="1430.0" type="qcurve"/>
    </contour>
  </outline>
</glyph>
<glyph name="macronbelowcomb.case" format="2">
  <advance width="1024"/>
  <outline>
    <contour>
      <point x="60.0" y="-449.0" type="line"/>
      <point x="60.0" y="-204.0" type="line"/>
      <point x="964.0" y="-204.0" type="line"/>
      <point x="964.0" y="-449.0" type="line"/>
    </contour>
  </outline>
</glyph>
<glyph name="macroncombstack.case" format="2">
  <advance width="1024"/>
  <outline>
    <contour>
      <point x="35.0" y="1654.0" type="line"/>
      <point x="35.0" y="1861.0" type="line"/>
      <point x="989.0" y="1861.0" type="line"/>
      <point x="989.0" y="1654.0" type="line"/>
    </contour>
  </outline>
</glyph>
<glyph name="nine.lf" format="2">
  <advance width="1850"/>
  <outline>
    <contour>
      <point x="107.0" y="989.0" type="qcurve" smooth="yes"/>
      <point x="107.0" y="1247.0"/>
      <point x="542.0" y="1530.0"/>
      <point x="919.0" y="1530.0" type="qcurve" smooth="yes"/>
      <point x="1309.0" y="1530.0"/>
      <point x="1758.0" y="1198.0"/>
      <point x="1758.0" y="809.0" type="qcurve" smooth="yes"/>
      <point x="1758.0" y="410.0"/>
      <point x="1045.0" y="-46.0"/>
      <point x="387.0" y="-32.0" type="qcurve"/>
      <point x="429.0" y="201.0" type="line"/>
      <point x="756.0" y="181.0"/>
      <point x="1234.0" y="538.0"/>
      <point x="1232.0" y="850.0" type="qcurve" smooth="yes"/>
      <point x="1230.0" y="1157.0"/>
      <point x="1098.0" y="1331.0"/>
      <point x="898.0" y="1331.0" type="qcurve" smooth="yes"/>
      <point x="790.0" y="1331.0"/>
      <point x="591.0" y="1216.0"/>
      <point x="591.0" y="1028.0" type="qcurve" smooth="yes"/>
      <point x="591.0" y="842.0"/>
      <point x="679.0" y="722.0"/>
      <point x="766.0" y="722.0" type="qcurve" smooth="yes"/>
      <point x="885.0" y="722.0"/>
      <point x="999.0" y="752.0"/>
      <point x="1026.0" y="761.0" type="qcurve"/>
      <point x="1060.0" y="614.0" type="line"/>
      <point x="1030.0" y="589.0"/>
      <point x="816.0" y="525.0"/>
      <point x="720.0" y="525.0" type="qcurve" smooth="yes"/>
      <point x="438.0" y="525.0"/>
      <point x="107.0" y="755.0"/>
    </contour>
  </outline>
</glyph>
<glyph name="one.lf" format="2">
  <advance width="1325"/>
  <outline>
    <contour>
      <point x="29.0" y="0.0" type="line"/>
      <point x="29.0" y="174.0" type="line"/>
      <point x="397.0" y="209.0" type="line"/>
      <point x="397.0" y="754.0" type="line"/>
      <point x="395.0" y="1261.0" type="line"/>
      <point x="27.0" y="1295.0" type="line"/>
      <point x="27.0" y="1483.0" type="line"/>
      <point x="902.0" y="1506.0" type="line"/>
      <point x="934.0" y="1471.0" type="line"/>
      <point x="928.0" y="754.0" type="line"/>
      <point x="928.0" y="209.0" type="line"/>
      <point x="1296.0" y="174.0" type="line"/>
      <point x="1296.0" y="0.0" type="line"/>
    </contour>
  </outline>
</glyph>
<glyph name="ringcomb.case" format="2">
  <advance width="1024"/>
  <outline>
    <contour>
      <point x="159.0" y="1854.0" type="qcurve" smooth="yes"/>
      <point x="159.0" y="1974.0"/>
      <point x="370.0" y="2149.0"/>
      <point x="513.0" y="2149.0" type="qcurve" smooth="yes"/>
      <point x="655.0" y="2149.0"/>
      <point x="866.0" y="1974.0"/>
      <point x="866.0" y="1854.0" type="qcurve" smooth="yes"/>
      <point x="866.0" y="1736.0"/>
      <point x="655.0" y="1560.0"/>
      <point x="513.0" y="1560.0" type="qcurve" smooth="yes"/>
      <point x="370.0" y="1560.0"/>
      <point x="159.0" y="1736.0"/>
    </contour>
    <contour>
      <point x="346.0" y="1853.0" type="qcurve" smooth="yes"/>
      <point x="346.0" y="1793.0"/>
      <point x="439.0" y="1716.0"/>
      <point x="513.0" y="1716.0" type="qcurve" smooth="yes"/>
      <point x="590.0" y="1716.0"/>
      <point x="679.0" y="1787.0"/>
      <point x="679.0" y="1853.0" type="qcurve" smooth="yes"/>
      <point x="679.0" y="1915.0"/>
      <point x="587.0" y="1993.0"/>
      <point x="513.0" y="1993.0" type="qcurve" smooth="yes"/>
      <point x="436.0" y="1993.0"/>
      <point x="346.0" y="1921.0"/>
    </contour>
  </outline>
</glyph>
<glyph name="seven.tab" format="2">
  <advance width="1923"/>
  <outline>
    <contour>
      <point x="285.0" y="933.0" type="line"/>
      <point x="263.0" y="1500.0" type="line"/>
      <point x="1710.0" y="1500.0" type="line"/>
      <point x="1710.0" y="1321.0" type="line"/>
      <point x="1301.0" y="671.0" type="line"/>
      <point x="1033.0" y="28.0" type="line"/>
      <point x="534.0" y="28.0" type="line"/>
      <point x="534.0" y="110.0" type="line"/>
      <point x="1057.0" y="797.0" type="line"/>
      <point x="1362.0" y="1134.0" type="line"/>
      <point x="1348.0" y="1163.0" type="line"/>
      <point x="474.0" y="1163.0" type="line"/>
      <point x="442.0" y="933.0" type="line"/>
    </contour>
  </outline>
</glyph>
<glyph name="two.tab" format="2">
  <advance width="1923"/>
  <outline>
    <contour>
      <point x="200.0" y="0.0" type="line"/>
      <point x="200.0" y="157.0" type="line"/>
      <point x="207.0" y="290.0"/>
      <point x="468.0" y="596.0"/>
      <point x="718.0" y="704.0" type="qcurve" smooth="yes"/>
      <point x="931.0" y="786.0"/>
      <point x="1144.0" y="945.0"/>
      <point x="1144.0" y="1057.0" type="qcurve" smooth="yes"/>
      <point x="1144.0" y="1146.0"/>
      <point x="962.0" y="1220.0"/>
      <point x="779.0" y="1220.0" type="qcurve" smooth="yes"/>
      <point x="667.0" y="1220.0"/>
      <point x="422.0" y="1151.0"/>
      <point x="327.0" y="1103.0" type="qcurve"/>
      <point x="227.0" y="1323.0" type="line"/>
      <point x="334.0" y="1397.0"/>
      <point x="749.0" y="1526.0"/>
      <point x="1017.0" y="1526.0" type="qcurve" smooth="yes"/>
      <point x="1349.0" y="1526.0"/>
      <point x="1685.0" y="1308.0"/>
      <point x="1690.0" y="1133.0" type="qcurve" smooth="yes"/>
      <point x="1696.0" y="952.0"/>
      <point x="1509.0" y="758.0"/>
      <point x="1122.0" y="592.0" type="qcurve" smooth="yes"/>
      <point x="843.0" y="491.0"/>
      <point x="613.0" y="415.0"/>
      <point x="578.0" y="358.0" type="qcurve"/>
      <point x="577.0" y="339.0" type="line"/>
      <point x="1720.0" y="339.0" type="line"/>
      <point x="1720.0" y="0.0" type="line"/>
    </contour>
  </outline>
</glyph>
<glyph name="zero.tab" format="2">
  <advance width="1923"/>
  <outline>
    <contour>
      <point x="70.0" y="748.0" type="qcurve" smooth="yes"/>
      <point x="70.0" y="1135.0"/>
      <point x="555.0" y="1525.0"/>
      <point x="965.0" y="1525.0" type="qcurve" smooth="yes"/>
      <point x="1381.0" y="1525.0"/>
      <point x="1853.0" y="1140.0"/>
      <point x="1853.0" y="764.0" type="qcurve" smooth="yes"/>
      <point x="1853.0" y="381.0"/>
      <point x="1390.0" y="-34.0"/>
      <point x="974.0" y="-34.0" type="qcurve" smooth="yes"/>
      <point x="556.0" y="-34.0"/>
      <point x="70.0" y="373.0"/>
    </contour>
    <contour>
      <point x="612.0" y="769.0" type="qcurve" smooth="yes"/>
      <point x="613.0" y="368.0"/>
      <point x="769.0" y="175.0"/>
      <point x="960.0" y="175.0" type="qcurve" smooth="yes"/>
      <point x="1152.0" y="175.0"/>
      <point x="1309.0" y="363.0"/>
      <point x="1311.0" y="755.0" type="qcurve" smooth="yes"/>
      <point x="1311.0" y="1135.0"/>
      <point x="1142.0" y="1321.0"/>
      <point x="961.0" y="1320.0" type="qcurve" smooth="yes"/>
      <point x="774.0" y="1319.0"/>
      <point x="612.0" y="1152.0"/>
    </contour>
  </outline>
</glyph>
